<?xml version="1.0" encoding="UTF-8"?><svg id="Vrstva_1" xmlns="http://www.w3.org/2000/svg" viewBox="0 0 102.04 68.03"><defs><style>.cls-1{fill:#fff;}</style></defs><polygon class="cls-1" points="37.37 17.17 47.84 17.17 47.84 18.85 43.48 18.85 43.48 31.15 41.73 31.15 41.73 18.85 37.37 18.85 37.37 17.17"/><path class="cls-1" d="m57.67,20.78c-.6-1.38-1.52-2.1-2.84-2.1-1.54,0-2.52.78-2.52,2.16,0,1.5,1.38,1.9,3.24,2.38,2.14.56,3.98,1.2,3.98,3.63,0,3.06-1.92,4.45-4.63,4.45s-4.68-1.42-5.21-4.15l1.64-.64c.5,1.88,1.58,3.12,3.58,3.12,1.7,0,2.88-.84,2.88-2.54,0-1.46-1.08-1.76-3.17-2.28-1.98-.5-4.04-1.12-4.04-3.92,0-2.22,1.54-3.9,4.28-3.9,2.44,0,3.82,1.48,4.38,3l-1.54.78Z"/><path class="cls-1" d="m70.5,21.16c0-1.54-.84-2.32-2.38-2.32h-3.5v4.63h3.5c1.54,0,2.38-.78,2.38-2.32m-5.87,3.99v5.99h-1.76v-13.98h5.29c2.7,0,4.16,1.56,4.16,4s-1.46,3.99-4.16,3.99h-3.53Z"/><path class="cls-1" d="m41.88,38.72v10.63h1.6c2.78,0,4.52-1.4,4.52-5.32s-1.74-5.31-4.52-5.31h-1.6Zm1.78-1.68c3.64,0,6.21,2.26,6.21,6.99s-2.58,6.99-6.21,6.99h-3.54v-13.98h3.54Z"/><path class="cls-1" d="m56.85,39.32l2.16,6.29h-4.32l2.16-6.29Zm-.84-2.28l-4.98,13.98h1.82l1.26-3.74h5.47l1.26,3.74h1.82l-4.98-13.98h-1.68Z"/><polygon class="cls-1" points="62.8 37.04 62.8 38.72 67.16 38.72 67.16 51.02 68.92 51.02 68.92 38.72 73.27 38.72 73.27 37.04 62.8 37.04"/><path class="cls-1" d="m79.22,39.32l2.16,6.29h-4.32l2.16-6.29Zm-.84-2.28l-4.97,13.98h1.82l1.26-3.74h5.47l1.26,3.74h1.82l-4.97-13.98h-1.68Z"/><path class="cls-1" d="m29.43,33.56l-10.99-2.66c-.84-.22-1.43-.97-1.43-1.84v-9.99c0-1.05.85-1.9,1.9-1.9h10.99c1.05,0,1.9.85,1.9,1.9v12.65c0,1.24-1.17,2.15-2.37,1.84"/><polygon class="cls-1" points="17.01 51.01 31.86 51.01 31.86 38.29 17.01 34.64 17.01 51.01"/></svg>