<?xml version="1.0" encoding="UTF-8"?><svg id="Vrstva_1" xmlns="http://www.w3.org/2000/svg" viewBox="0 0 298.08 102.05"><defs><style>.cls-1{fill:#fff;}</style></defs><polygon class="cls-1" points="34.02 34.39 34.02 38.39 44.37 38.39 44.37 67.65 48.55 67.65 48.55 38.39 58.91 38.39 58.91 34.39 34.02 34.39"/><path class="cls-1" d="m80.86,42.99c-1.42-3.28-3.61-4.99-6.75-4.99-3.66,0-5.99,1.85-5.99,5.13,0,3.56,3.28,4.51,7.69,5.65,5.08,1.33,9.45,2.85,9.45,8.65,0,7.27-4.56,10.59-11.02,10.59s-11.12-3.37-12.4-9.88l3.9-1.52c1.19,4.46,3.75,7.41,8.5,7.41,4.04,0,6.84-1.99,6.84-6.03,0-3.47-2.57-4.18-7.55-5.42-4.7-1.19-9.6-2.66-9.6-9.31,0-5.27,3.66-9.26,10.17-9.26,5.79,0,9.08,3.51,10.41,7.13l-3.66,1.85Z"/><path class="cls-1" d="m111.37,43.9c0-3.66-2-5.51-5.65-5.51h-8.31v11.02h8.31c3.66,0,5.65-1.85,5.65-5.51m-13.97,9.5v14.25h-4.18v-33.26h12.59c6.41,0,9.88,3.71,9.88,9.5s-3.47,9.5-9.88,9.5h-8.41Z"/><path class="cls-1" d="m161.45,38.34v25.27h3.8c6.6,0,10.74-3.33,10.74-12.64s-4.14-12.64-10.74-12.64h-3.8Zm4.23-3.99c8.65,0,14.77,5.37,14.77,16.63s-6.13,16.63-14.77,16.63h-8.41v-33.26h8.41Z"/><path class="cls-1" d="m197.04,39.76l5.13,14.97h-10.26l5.13-14.97Zm-2-5.42l-11.83,33.26h4.33l2.99-8.88h13.02l2.99,8.88h4.33l-11.83-33.26h-3.99Z"/><polygon class="cls-1" points="211.19 34.35 211.19 38.34 221.55 38.34 221.55 67.61 225.73 67.61 225.73 38.34 236.09 38.34 236.09 34.35 211.19 34.35"/><path class="cls-1" d="m250.24,39.76l5.13,14.97h-10.26l5.13-14.97Zm-2-5.42l-11.83,33.26h4.33l2.99-8.88h13.02l2.99,8.88h4.33l-11.83-33.26h-3.99Z"/><path class="cls-1" d="m139.85,50.45l-10.79-2.61c-.83-.21-1.4-.96-1.4-1.81v-9.8c0-1.03.84-1.87,1.87-1.87h10.79c1.03,0,1.87.84,1.87,1.87v12.41c0,1.22-1.15,2.11-2.33,1.81"/><polygon class="cls-1" points="127.66 67.58 142.25 67.58 142.25 55.09 127.66 51.51 127.66 67.58"/></svg>