<svg width="231" height="35" viewBox="0 0 231 35" fill="none" xmlns="http://www.w3.org/2000/svg">
<path d="M0 0.378906V4.37891H10.35V33.6389H14.53V4.37891H24.89V0.378906H0Z" fill="white"/>
<path d="M46.84 8.98C45.42 5.7 43.23 3.99 40.09 3.99C36.43 3.99 34.1 5.84 34.1 9.12C34.1 12.68 37.38 13.63 41.79 14.77C46.87 16.1 51.24 17.62 51.24 23.42C51.24 30.69 46.68 34.01 40.22 34.01C33.76 34.01 29.1 30.64 27.82 24.13L31.72 22.61C32.91 27.07 35.47 30.02 40.22 30.02C44.26 30.02 47.06 28.03 47.06 23.99C47.06 20.52 44.49 19.81 39.51 18.57C34.81 17.38 29.91 15.91 29.91 9.26C29.91 3.99 33.57 0 40.08 0C45.87 0 49.16 3.51 50.49 7.13L46.83 8.98H46.84Z" fill="white"/>
<path d="M77.35 9.88891C77.35 6.22891 75.35 4.37891 71.7 4.37891H63.39V15.3989H71.7C75.36 15.3989 77.35 13.5489 77.35 9.88891ZM63.38 19.3889V33.6389H59.2V0.378906H71.79C78.2 0.378906 81.67 4.08891 81.67 9.87891C81.67 15.6689 78.2 19.3789 71.79 19.3789H63.38V19.3889Z" fill="white"/>
<path d="M127.43 4.32985V29.5998H131.23C137.83 29.5998 141.97 26.2698 141.97 16.9598C141.97 7.64985 137.83 4.31985 131.23 4.31985H127.43V4.32985ZM131.66 0.339844C140.31 0.339844 146.43 5.70984 146.43 16.9698C146.43 28.2298 140.3 33.5998 131.66 33.5998H123.25V0.339844H131.66Z" fill="white"/>
<path d="M163.02 5.74812L168.15 20.7181H157.89L163.02 5.74812ZM161.02 0.328125L149.19 33.5881H153.52L156.51 24.7081H169.53L172.52 33.5881H176.85L165.02 0.328125H161.03H161.02Z" fill="white"/>
<path d="M177.17 0.339844V4.32985H187.53V33.5998H191.71V4.32985H202.07V0.339844H177.17Z" fill="white"/>
<path d="M216.22 5.74812L221.35 20.7181H211.09L216.22 5.74812ZM214.22 0.328125L202.39 33.5881H206.72L209.71 24.7081H222.73L225.72 33.5881H230.05L218.22 0.328125H214.23H214.22Z" fill="white"/>
<path d="M105.83 16.4377L95.04 13.8277C94.21 13.6177 93.64 12.8677 93.64 12.0177V2.21766C93.64 1.18766 94.48 0.347656 95.51 0.347656H106.3C107.33 0.347656 108.17 1.18766 108.17 2.21766V14.6277C108.17 15.8477 107.02 16.7377 105.84 16.4377" fill="white"/>
<path d="M93.64 33.57H108.23V21.08L93.64 17.5V33.57Z" fill="white"/>
</svg>
