<svg width="286" height="34" viewBox="0 0 286 34" fill="none" xmlns="http://www.w3.org/2000/svg">
<path d="M20.36 0.177246H30.83V1.83182H26.47V13.9456H24.72V1.83182H20.36V0.177246Z" fill="#ECEBEB"/>
<path d="M40.6599 3.73263C40.0599 2.37352 39.1399 1.66442 37.8199 1.66442C36.2799 1.66442 35.2999 2.43261 35.2999 3.79172C35.2999 5.26901 36.6799 5.66296 38.5399 6.13569C40.6799 6.68721 42.5199 7.31753 42.5199 9.71074C42.5199 12.7244 40.5999 14.0934 37.8899 14.0934C35.1799 14.0934 33.2099 12.6949 32.6799 10.0062L34.3199 9.37589C34.8199 11.2274 35.8999 12.4487 37.8999 12.4487C39.5999 12.4487 40.7799 11.6214 40.7799 9.94711C40.7799 8.50921 39.6999 8.21375 37.6099 7.70162C35.6299 7.20919 33.5699 6.59858 33.5699 3.84096C33.5699 1.65457 35.1099 0 37.8499 0C40.2899 0 41.6699 1.4576 42.2299 2.95459L40.6899 3.72278L40.6599 3.73263Z" fill="#ECEBEB"/>
<path d="M53.49 4.10677C53.49 2.59008 52.65 1.82189 51.11 1.82189H47.61V6.3818H51.11C52.65 6.3818 53.49 5.61361 53.49 4.09692M47.62 8.02652V13.9258H45.86V0.157471H51.15C53.85 0.157471 55.31 1.69386 55.31 4.09692C55.31 6.49998 53.85 8.02652 51.15 8.02652H47.62Z" fill="#ECEBEB"/>
<path d="M24.87 21.4012V31.8702H26.47C29.25 31.8702 30.99 30.4914 30.99 26.6308C30.99 22.7701 29.25 21.4012 26.47 21.4012H24.87ZM26.65 19.7466C30.29 19.7466 32.86 21.9724 32.86 26.6308C32.86 31.2892 30.28 33.515 26.65 33.515H23.11V19.7466H26.65Z" fill="#ECEBEB"/>
<path d="M39.84 21.9921L42 28.1869H37.68L39.84 21.9921ZM39 19.7466L34.02 33.515H35.84L37.1 29.8316H42.57L43.83 33.515H45.65L40.67 19.7466H38.99H39Z" fill="#ECEBEB"/>
<path d="M45.79 19.7466V21.4012H50.15V33.515H51.91V21.4012H56.26V19.7466H45.79Z" fill="#ECEBEB"/>
<path d="M62.21 21.9921L64.37 28.1869H60.05L62.21 21.9921ZM61.37 19.7466L56.4 33.515H58.22L59.48 29.8316H64.95L66.21 33.515H68.03L63.06 19.7466H61.38H61.37Z" fill="#ECEBEB"/>
<path d="M12.42 16.3191L1.43 13.6994C0.59 13.4827 0 12.7441 0 11.8873V2.04848C0 1.01438 0.85 0.177246 1.9 0.177246H12.89C13.94 0.177246 14.79 1.01438 14.79 2.04848V14.507C14.79 15.7282 13.62 16.6244 12.42 16.3191Z" fill="#ECEBEB"/>
<path d="M0 33.505H14.85V20.9776L0 17.3828V33.505Z" fill="#ECEBEB"/>
<rect x="76.03" y="0.257568" width="2" height="33" rx="1" fill="#ECEBEB"/>
<path d="M95.305 25.9576C93.8217 25.9576 92.4634 25.6159 91.23 24.9326C90.0134 24.2492 89.0384 23.2326 88.305 21.8826C87.5884 20.5326 87.23 18.9076 87.23 17.0076C87.23 15.1076 87.5884 13.4826 88.305 12.1326C89.0384 10.7826 90.0134 9.7659 91.23 9.08257C92.4634 8.39923 93.8217 8.05757 95.305 8.05757C96.7884 8.05757 98.1384 8.39923 99.355 9.08257C100.588 9.7659 101.563 10.7826 102.28 12.1326C103.013 13.4826 103.38 15.1076 103.38 17.0076C103.38 18.9076 103.013 20.5326 102.28 21.8826C101.563 23.2326 100.588 24.2492 99.355 24.9326C98.1384 25.6159 96.7884 25.9576 95.305 25.9576ZM95.305 23.3826C96.2717 23.3826 97.155 23.1492 97.955 22.6826C98.755 22.2159 99.3884 21.5076 99.855 20.5576C100.322 19.5909 100.555 18.4076 100.555 17.0076C100.555 15.6076 100.322 14.4326 99.855 13.4826C99.3884 12.5159 98.755 11.7992 97.955 11.3326C97.155 10.8659 96.2717 10.6326 95.305 10.6326C94.3384 10.6326 93.455 10.8659 92.655 11.3326C91.855 11.7992 91.2217 12.5159 90.755 13.4826C90.2884 14.4326 90.055 15.6076 90.055 17.0076C90.055 18.4076 90.2884 19.5909 90.755 20.5576C91.2217 21.5076 91.855 22.2159 92.655 22.6826C93.455 23.1492 94.3384 23.3826 95.305 23.3826ZM113.61 25.9576C112.876 25.9576 112.193 25.7992 111.56 25.4826C110.943 25.1492 110.518 24.7742 110.285 24.3576V25.1076V25.7576H107.635V8.05757H110.285V13.7326V14.4826C110.618 14.0492 111.085 13.6909 111.685 13.4076C112.301 13.1076 112.943 12.9576 113.61 12.9576C115.443 12.9576 116.851 13.5492 117.835 14.7326C118.818 15.9159 119.31 17.4909 119.31 19.4576C119.31 21.4242 118.818 22.9992 117.835 24.1826C116.851 25.3659 115.443 25.9576 113.61 25.9576ZM113.285 23.6576C114.268 23.6576 115.06 23.2826 115.66 22.5326C116.26 21.7659 116.56 20.7409 116.56 19.4576C116.56 18.1742 116.26 17.1576 115.66 16.4076C115.06 15.6409 114.268 15.2576 113.285 15.2576C112.318 15.2576 111.535 15.6409 110.935 16.4076C110.335 17.1576 110.035 18.1742 110.035 19.4576C110.035 20.7409 110.335 21.7659 110.935 22.5326C111.535 23.2826 112.318 23.6576 113.285 23.6576ZM127.167 25.9576C125.867 25.9576 124.8 25.6242 123.967 24.9576C123.134 24.2909 122.584 23.4826 122.317 22.5326L124.442 21.4076C124.975 22.9076 125.884 23.6576 127.167 23.6576C127.65 23.6576 128.05 23.5242 128.367 23.2576C128.684 22.9909 128.842 22.6159 128.842 22.1326C128.842 21.6992 128.617 21.3326 128.167 21.0326C127.717 20.7159 127.059 20.3909 126.192 20.0576C125.209 19.6909 124.45 19.2242 123.917 18.6576C123.4 18.0909 123.142 17.3409 123.142 16.4076C123.142 15.7576 123.309 15.1742 123.642 14.6576C123.975 14.1242 124.434 13.7076 125.017 13.4076C125.6 13.1076 126.259 12.9576 126.992 12.9576C127.842 12.9576 128.592 13.1326 129.242 13.4826C129.892 13.8159 130.409 14.3159 130.792 14.9826L129.167 16.4576C128.634 15.6576 127.917 15.2576 127.017 15.2576C126.617 15.2576 126.284 15.3659 126.017 15.5826C125.75 15.7992 125.617 16.0909 125.617 16.4576C125.617 16.8242 125.8 17.1492 126.167 17.4326C126.55 17.7159 127.25 18.0492 128.267 18.4326C130.317 19.1659 131.342 20.3492 131.342 21.9826C131.342 23.1992 130.959 24.1659 130.192 24.8826C129.425 25.5992 128.417 25.9576 127.167 25.9576ZM146.012 20.1576H137.037C137.154 21.2576 137.504 22.1159 138.087 22.7326C138.67 23.3492 139.429 23.6576 140.362 23.6576C141.129 23.6576 141.762 23.4826 142.262 23.1326C142.779 22.7826 143.245 22.2326 143.662 21.4826L145.837 22.3326C145.287 23.5492 144.562 24.4576 143.662 25.0576C142.762 25.6576 141.62 25.9576 140.237 25.9576C138.954 25.9576 137.87 25.6492 136.987 25.0326C136.104 24.4159 135.437 23.6159 134.987 22.6326C134.554 21.6326 134.337 20.5742 134.337 19.4576C134.337 18.3409 134.554 17.2909 134.987 16.3076C135.437 15.3076 136.104 14.4992 136.987 13.8826C137.87 13.2659 138.954 12.9576 140.237 12.9576C141.487 12.9576 142.545 13.2492 143.412 13.8326C144.279 14.4159 144.929 15.1742 145.362 16.1076C145.795 17.0409 146.012 18.0242 146.012 19.0576V20.1576ZM143.312 18.0076C143.162 17.1909 142.829 16.5326 142.312 16.0326C141.812 15.5159 141.12 15.2576 140.237 15.2576C139.487 15.2576 138.837 15.4992 138.287 15.9826C137.737 16.4492 137.362 17.1242 137.162 18.0076H143.312ZM150.154 25.7576V13.1576H152.804V15.2576C153.221 14.5076 153.754 13.9409 154.404 13.5576C155.054 13.1576 155.763 12.9576 156.529 12.9576C157.013 12.9576 157.554 13.0576 158.154 13.2576L157.654 15.7076C157.238 15.4576 156.754 15.3326 156.204 15.3326C155.221 15.3326 154.404 15.8159 153.754 16.7826C153.121 17.7326 152.804 19.1909 152.804 21.1576V25.7576H150.154ZM167.275 25.7576H164.825L160.55 13.1576H163.225L166.05 22.4576L168.875 13.1576H171.55L167.275 25.7576ZM177.729 25.9576C176.613 25.9576 175.688 25.6326 174.954 24.9826C174.238 24.3159 173.879 23.3659 173.879 22.1326C173.879 20.8492 174.363 19.8409 175.329 19.1076C176.296 18.3742 177.613 18.0076 179.279 18.0076H181.479V17.4576C181.479 16.7076 181.254 16.1576 180.804 15.8076C180.371 15.4409 179.796 15.2576 179.079 15.2576C177.846 15.2576 177.038 15.8242 176.654 16.9576L174.354 16.4326C174.554 15.3992 175.088 14.5659 175.954 13.9326C176.821 13.2826 177.863 12.9576 179.079 12.9576C180.646 12.9576 181.871 13.3909 182.754 14.2576C183.654 15.1076 184.104 16.3492 184.104 17.9826V25.7576H181.979L181.629 24.0576C180.696 25.3242 179.396 25.9576 177.729 25.9576ZM178.354 23.6576C178.871 23.6576 179.363 23.5409 179.829 23.3076C180.313 23.0576 180.704 22.6992 181.004 22.2326C181.321 21.7492 181.479 21.1659 181.479 20.4826V20.1576H179.379C178.479 20.1576 177.796 20.3242 177.329 20.6576C176.863 20.9742 176.629 21.4576 176.629 22.1076C176.629 22.5742 176.788 22.9492 177.104 23.2326C177.421 23.5159 177.838 23.6576 178.354 23.6576ZM194.669 25.9576C193.936 25.9576 193.253 25.7992 192.619 25.4826C192.003 25.1492 191.578 24.7742 191.344 24.3576V25.1076V25.7576H188.694V8.05757H191.344V13.7326V14.4826C191.678 14.0492 192.144 13.6909 192.744 13.4076C193.361 13.1076 194.003 12.9576 194.669 12.9576C196.503 12.9576 197.911 13.5492 198.894 14.7326C199.878 15.9159 200.369 17.4909 200.369 19.4576C200.369 21.4242 199.878 22.9992 198.894 24.1826C197.911 25.3659 196.503 25.9576 194.669 25.9576ZM194.344 23.6576C195.328 23.6576 196.119 23.2826 196.719 22.5326C197.319 21.7659 197.619 20.7409 197.619 19.4576C197.619 18.1742 197.319 17.1576 196.719 16.4076C196.119 15.6409 195.328 15.2576 194.344 15.2576C193.378 15.2576 192.594 15.6409 191.994 16.4076C191.394 17.1576 191.094 18.1742 191.094 19.4576C191.094 20.7409 191.394 21.7659 191.994 22.5326C192.594 23.2826 193.378 23.6576 194.344 23.6576ZM207.145 25.7576H204.495V13.1576H207.145V25.7576ZM205.82 11.3076C205.303 11.3076 204.878 11.1409 204.545 10.8076C204.212 10.4576 204.045 10.0326 204.045 9.53257C204.045 9.03257 204.212 8.6159 204.545 8.28257C204.878 7.93257 205.303 7.75757 205.82 7.75757C206.337 7.75757 206.762 7.93257 207.095 8.28257C207.445 8.6159 207.62 9.03257 207.62 9.53257C207.62 10.0326 207.445 10.4576 207.095 10.8076C206.762 11.1409 206.337 11.3076 205.82 11.3076ZM214.645 25.7576H211.995V8.05757H214.645V25.7576ZM222.145 25.7576H219.495V13.1576H222.145V25.7576ZM220.82 11.3076C220.303 11.3076 219.878 11.1409 219.545 10.8076C219.212 10.4576 219.045 10.0326 219.045 9.53257C219.045 9.03257 219.212 8.6159 219.545 8.28257C219.878 7.93257 220.303 7.75757 220.82 7.75757C221.337 7.75757 221.762 7.93257 222.095 8.28257C222.445 8.6159 222.62 9.03257 222.62 9.53257C222.62 10.0326 222.445 10.4576 222.095 10.8076C221.762 11.1409 221.337 11.3076 220.82 11.3076ZM231.67 25.9576C230.353 25.9576 229.32 25.5909 228.57 24.8576C227.837 24.1242 227.47 23.0242 227.47 21.5576V15.4576H225.445V13.1576H227.47V9.73257L230.12 8.05757V13.1576H233.47V15.4576H230.12V21.6076C230.12 22.3409 230.262 22.8659 230.545 23.1826C230.828 23.4992 231.245 23.6576 231.795 23.6576C232.295 23.6576 232.737 23.5492 233.12 23.3326L233.745 25.5076C233.145 25.8076 232.453 25.9576 231.67 25.9576ZM241.797 21.6076L244.822 13.1576H247.472L241.047 30.8576H238.497L240.547 25.1326L235.997 13.1576H238.672L241.797 21.6076Z" fill="#ECEBEB"/>
<path d="M253.47 20.9176C252.643 20.9176 251.897 20.7509 251.23 20.4176C250.577 20.0842 250.043 19.6109 249.63 18.9976C249.23 18.3842 248.99 17.6842 248.91 16.8976L250.97 16.6176C251.117 17.3509 251.397 17.9242 251.81 18.3376C252.223 18.7509 252.777 18.9576 253.47 18.9576C254.243 18.9576 254.85 18.7242 255.29 18.2576C255.743 17.7776 255.97 17.1309 255.97 16.3176C255.97 15.4509 255.743 14.7842 255.29 14.3176C254.85 13.8376 254.25 13.5976 253.49 13.5976C253.063 13.5976 252.657 13.7042 252.27 13.9176L251.39 12.6976L254.31 8.71757H249.57V6.75757H257.39V7.47757L253.95 12.0976C254.163 12.0709 254.343 12.0576 254.49 12.0576C255.197 12.0576 255.823 12.2309 256.37 12.5776C256.917 12.9242 257.343 13.4242 257.65 14.0776C257.957 14.7176 258.11 15.4576 258.11 16.2976C258.11 17.2176 257.91 18.0309 257.51 18.7376C257.123 19.4309 256.577 19.9709 255.87 20.3576C255.177 20.7309 254.377 20.9176 253.47 20.9176ZM265.447 20.9176C264.58 20.9176 263.8 20.7176 263.107 20.3176C262.414 19.9176 261.867 19.3709 261.467 18.6776C261.067 17.9842 260.867 17.2109 260.867 16.3576C260.867 15.9442 260.927 15.5109 261.047 15.0576C261.18 14.5909 261.367 14.1509 261.607 13.7376L265.567 6.75757H267.907L264.947 11.8976C265.12 11.8309 265.327 11.7976 265.567 11.7976C266.407 11.7976 267.167 11.9909 267.847 12.3776C268.527 12.7642 269.06 13.3042 269.447 13.9976C269.834 14.6909 270.027 15.4776 270.027 16.3576C270.027 17.2109 269.827 17.9842 269.427 18.6776C269.04 19.3709 268.494 19.9176 267.787 20.3176C267.094 20.7176 266.314 20.9176 265.447 20.9176ZM265.447 18.9576C266.154 18.9576 266.734 18.7176 267.187 18.2376C267.654 17.7576 267.887 17.1309 267.887 16.3576C267.887 15.5576 267.654 14.9242 267.187 14.4576C266.734 13.9909 266.154 13.7576 265.447 13.7576C264.74 13.7576 264.154 13.9909 263.687 14.4576C263.234 14.9242 263.007 15.5576 263.007 16.3576C263.007 17.1309 263.24 17.7576 263.707 18.2376C264.174 18.7176 264.754 18.9576 265.447 18.9576ZM278.005 20.9176C276.378 20.9176 275.125 20.2842 274.245 19.0176C273.378 17.7509 272.945 15.9976 272.945 13.7576C272.945 11.5176 273.378 9.76423 274.245 8.49757C275.125 7.2309 276.378 6.59757 278.005 6.59757C279.632 6.59757 280.878 7.2309 281.745 8.49757C282.625 9.76423 283.065 11.5176 283.065 13.7576C283.065 15.9976 282.625 17.7509 281.745 19.0176C280.878 20.2842 279.632 20.9176 278.005 20.9176ZM278.005 18.9576C278.965 18.9576 279.692 18.5042 280.185 17.5976C280.692 16.6909 280.945 15.4109 280.945 13.7576C280.945 12.1042 280.692 10.8242 280.185 9.91757C279.692 9.0109 278.965 8.55757 278.005 8.55757C277.032 8.55757 276.298 9.0109 275.805 9.91757C275.312 10.8242 275.065 12.1042 275.065 13.7576C275.065 15.4109 275.312 16.6909 275.805 17.5976C276.298 18.5042 277.032 18.9576 278.005 18.9576Z" fill="#ECEBEB"/>
</svg>
