<svg width="254" height="40" viewBox="0 0 254 40" fill="none" xmlns="http://www.w3.org/2000/svg">
<path d="M11.872 31.256C9.97333 31.256 8.23467 30.8187 6.656 29.944C5.09867 29.0693 3.85067 27.768 2.912 26.04C1.99467 24.312 1.536 22.232 1.536 19.8C1.536 17.368 1.99467 15.288 2.912 13.56C3.85067 11.832 5.09867 10.5307 6.656 9.656C8.23467 8.78133 9.97333 8.344 11.872 8.344C13.7707 8.344 15.4987 8.78133 17.056 9.656C18.6347 10.5307 19.8827 11.832 20.8 13.56C21.7387 15.288 22.208 17.368 22.208 19.8C22.208 22.232 21.7387 24.312 20.8 26.04C19.8827 27.768 18.6347 29.0693 17.056 29.944C15.4987 30.8187 13.7707 31.256 11.872 31.256ZM11.872 27.96C13.1093 27.96 14.24 27.6613 15.264 27.064C16.288 26.4667 17.0987 25.56 17.696 24.344C18.2933 23.1067 18.592 21.592 18.592 19.8C18.592 18.008 18.2933 16.504 17.696 15.288C17.0987 14.0507 16.288 13.1333 15.264 12.536C14.24 11.9387 13.1093 11.64 11.872 11.64C10.6347 11.64 9.504 11.9387 8.48 12.536C7.456 13.1333 6.64533 14.0507 6.048 15.288C5.45067 16.504 5.152 18.008 5.152 19.8C5.152 21.592 5.45067 23.1067 6.048 24.344C6.64533 25.56 7.456 26.4667 8.48 27.064C9.504 27.6613 10.6347 27.96 11.872 27.96ZM35.302 31.256C34.3633 31.256 33.4887 31.0533 32.678 30.648C31.8887 30.2213 31.3447 29.7413 31.046 29.208V30.168V31H27.654V8.344H31.046V15.608V16.568C31.4727 16.0133 32.07 15.5547 32.838 15.192C33.6273 14.808 34.4487 14.616 35.302 14.616C37.6487 14.616 39.4513 15.3733 40.71 16.888C41.9687 18.4027 42.598 20.4187 42.598 22.936C42.598 25.4533 41.9687 27.4693 40.71 28.984C39.4513 30.4987 37.6487 31.256 35.302 31.256ZM34.886 28.312C36.1447 28.312 37.158 27.832 37.926 26.872C38.694 25.8907 39.078 24.5787 39.078 22.936C39.078 21.2933 38.694 19.992 37.926 19.032C37.158 18.0507 36.1447 17.56 34.886 17.56C33.6487 17.56 32.646 18.0507 31.878 19.032C31.11 19.992 30.726 21.2933 30.726 22.936C30.726 24.5787 31.11 25.8907 31.878 26.872C32.646 27.832 33.6487 28.312 34.886 28.312ZM52.6553 31.256C50.9913 31.256 49.6259 30.8293 48.5593 29.976C47.4926 29.1227 46.7886 28.088 46.4473 26.872L49.1673 25.432C49.8499 27.352 51.0126 28.312 52.6553 28.312C53.2739 28.312 53.7859 28.1413 54.1913 27.8C54.5966 27.4587 54.7993 26.9787 54.7993 26.36C54.7993 25.8053 54.5113 25.336 53.9353 24.952C53.3593 24.5467 52.5166 24.1307 51.4073 23.704C50.1486 23.2347 49.1779 22.6373 48.4953 21.912C47.8339 21.1867 47.5033 20.2267 47.5033 19.032C47.5033 18.2 47.7166 17.4533 48.1433 16.792C48.5699 16.1093 49.1566 15.576 49.9033 15.192C50.6499 14.808 51.4926 14.616 52.4313 14.616C53.5193 14.616 54.4793 14.84 55.3113 15.288C56.1433 15.7147 56.8046 16.3547 57.2953 17.208L55.2153 19.096C54.5326 18.072 53.6153 17.56 52.4633 17.56C51.9513 17.56 51.5246 17.6987 51.1833 17.976C50.8419 18.2533 50.6713 18.6267 50.6713 19.096C50.6713 19.5653 50.9059 19.9813 51.3753 20.344C51.8659 20.7067 52.7619 21.1333 54.0633 21.624C56.6873 22.5627 57.9993 24.0773 57.9993 26.168C57.9993 27.7253 57.5086 28.9627 56.5273 29.88C55.5459 30.7973 54.2553 31.256 52.6553 31.256ZM76.777 23.832H65.289C65.4383 25.24 65.8863 26.3387 66.633 27.128C67.3797 27.9173 68.3503 28.312 69.545 28.312C70.5263 28.312 71.337 28.088 71.977 27.64C72.6383 27.192 73.2357 26.488 73.769 25.528L76.553 26.616C75.849 28.1733 74.921 29.336 73.769 30.104C72.617 30.872 71.1557 31.256 69.385 31.256C67.7423 31.256 66.3557 30.8613 65.225 30.072C64.0943 29.2827 63.241 28.2587 62.665 27C62.1103 25.72 61.833 24.3653 61.833 22.936C61.833 21.5067 62.1103 20.1627 62.665 18.904C63.241 17.624 64.0943 16.5893 65.225 15.8C66.3557 15.0107 67.7423 14.616 69.385 14.616C70.985 14.616 72.3397 14.9893 73.449 15.736C74.5583 16.4827 75.3903 17.4533 75.945 18.648C76.4997 19.8427 76.777 21.1013 76.777 22.424V23.832ZM73.321 21.08C73.129 20.0347 72.7023 19.192 72.041 18.552C71.401 17.8907 70.5157 17.56 69.385 17.56C68.425 17.56 67.593 17.8693 66.889 18.488C66.185 19.0853 65.705 19.9493 65.449 21.08H73.321ZM82.079 31V14.872H85.471V17.56C86.0043 16.6 86.687 15.8747 87.519 15.384C88.351 14.872 89.2577 14.616 90.239 14.616C90.8577 14.616 91.551 14.744 92.319 15L91.679 18.136C91.1457 17.816 90.527 17.656 89.823 17.656C88.5643 17.656 87.519 18.2747 86.687 19.512C85.8763 20.728 85.471 22.5947 85.471 25.112V31H82.079ZM103.994 31H100.858L95.3855 14.872H98.8095L102.426 26.776L106.042 14.872H109.466L103.994 31Z" fill="#1E1E1E"/>
<path d="M117.375 31.256C115.946 31.256 114.762 30.84 113.823 30.008C112.906 29.1547 112.447 27.9387 112.447 26.36C112.447 24.7173 113.066 23.4267 114.303 22.488C115.54 21.5493 117.226 21.08 119.359 21.08H122.175V20.376C122.175 19.416 121.887 18.712 121.311 18.264C120.756 17.7947 120.02 17.56 119.103 17.56C117.524 17.56 116.49 18.2853 115.999 19.736L113.055 19.064C113.311 17.7413 113.994 16.6747 115.103 15.864C116.212 15.032 117.546 14.616 119.103 14.616C121.108 14.616 122.676 15.1707 123.807 16.28C124.959 17.368 125.535 18.9573 125.535 21.048V31H122.815L122.367 28.824C121.172 30.4453 119.508 31.256 117.375 31.256ZM118.175 28.312C118.836 28.312 119.466 28.1627 120.063 27.864C120.682 27.544 121.183 27.0853 121.567 26.488C121.972 25.8693 122.175 25.1227 122.175 24.248V23.832H119.487C118.335 23.832 117.46 24.0453 116.863 24.472C116.266 24.8773 115.967 25.496 115.967 26.328C115.967 26.9253 116.17 27.4053 116.575 27.768C116.98 28.1307 117.514 28.312 118.175 28.312ZM139.058 31.256C138.12 31.256 137.245 31.0533 136.434 30.648C135.645 30.2213 135.101 29.7413 134.802 29.208V30.168V31H131.41V8.344H134.802V15.608V16.568C135.229 16.0133 135.826 15.5547 136.594 15.192C137.384 14.808 138.205 14.616 139.058 14.616C141.405 14.616 143.208 15.3733 144.466 16.888C145.725 18.4027 146.354 20.4187 146.354 22.936C146.354 25.4533 145.725 27.4693 144.466 28.984C143.208 30.4987 141.405 31.256 139.058 31.256ZM138.642 28.312C139.901 28.312 140.914 27.832 141.682 26.872C142.45 25.8907 142.834 24.5787 142.834 22.936C142.834 21.2933 142.45 19.992 141.682 19.032C140.914 18.0507 139.901 17.56 138.642 17.56C137.405 17.56 136.402 18.0507 135.634 19.032C134.866 19.992 134.482 21.2933 134.482 22.936C134.482 24.5787 134.866 25.8907 135.634 26.872C136.402 27.832 137.405 28.312 138.642 28.312ZM155.027 31H151.635V14.872H155.027V31ZM153.331 12.504C152.67 12.504 152.126 12.2907 151.699 11.864C151.273 11.416 151.059 10.872 151.059 10.232C151.059 9.592 151.273 9.05867 151.699 8.632C152.126 8.184 152.67 7.96 153.331 7.96C153.993 7.96 154.537 8.184 154.963 8.632C155.411 9.05867 155.635 9.592 155.635 10.232C155.635 10.872 155.411 11.416 154.963 11.864C154.537 12.2907 153.993 12.504 153.331 12.504ZM164.627 31H161.235V8.344H164.627V31ZM174.227 31H170.835V14.872H174.227V31ZM172.531 12.504C171.87 12.504 171.326 12.2907 170.899 11.864C170.473 11.416 170.259 10.872 170.259 10.232C170.259 9.592 170.473 9.05867 170.899 8.632C171.326 8.184 171.87 7.96 172.531 7.96C173.193 7.96 173.737 8.184 174.163 8.632C174.611 9.05867 174.835 9.592 174.835 10.232C174.835 10.872 174.611 11.416 174.163 11.864C173.737 12.2907 173.193 12.504 172.531 12.504ZM186.419 31.256C184.734 31.256 183.411 30.7867 182.451 29.848C181.513 28.9093 181.043 27.5013 181.043 25.624V17.816H178.451V14.872H181.043V10.488L184.435 8.344V14.872H188.723V17.816H184.435V25.688C184.435 26.6267 184.617 27.2987 184.979 27.704C185.342 28.1093 185.875 28.312 186.579 28.312C187.219 28.312 187.785 28.1733 188.275 27.896L189.075 30.68C188.307 31.064 187.422 31.256 186.419 31.256ZM199.381 25.688L203.253 14.872H206.645L198.421 37.528H195.157L197.781 30.2L191.957 14.872H195.381L199.381 25.688Z" fill="#00B0AB"/>
<path d="M214.072 26.208C212.997 26.208 212.027 25.9913 211.16 25.558C210.311 25.1247 209.617 24.5093 209.08 23.712C208.56 22.9147 208.248 22.0047 208.144 20.982L210.822 20.618C211.013 21.5713 211.377 22.3167 211.914 22.854C212.451 23.3913 213.171 23.66 214.072 23.66C215.077 23.66 215.866 23.3567 216.438 22.75C217.027 22.126 217.322 21.2853 217.322 20.228C217.322 19.1013 217.027 18.2347 216.438 17.628C215.866 17.004 215.086 16.692 214.098 16.692C213.543 16.692 213.015 16.8307 212.512 17.108L211.368 15.522L215.164 10.348H209.002V7.8H219.168V8.736L214.696 14.742C214.973 14.7073 215.207 14.69 215.398 14.69C216.317 14.69 217.131 14.9153 217.842 15.366C218.553 15.8167 219.107 16.4667 219.506 17.316C219.905 18.148 220.104 19.11 220.104 20.202C220.104 21.398 219.844 22.4553 219.324 23.374C218.821 24.2753 218.111 24.9773 217.192 25.48C216.291 25.9653 215.251 26.208 214.072 26.208ZM229.642 26.208C228.515 26.208 227.501 25.948 226.6 25.428C225.699 24.908 224.988 24.1973 224.468 23.296C223.948 22.3947 223.688 21.3893 223.688 20.28C223.688 19.7427 223.766 19.1793 223.922 18.59C224.095 17.9833 224.338 17.4113 224.65 16.874L229.798 7.8H232.84L228.992 14.482C229.217 14.3953 229.486 14.352 229.798 14.352C230.89 14.352 231.878 14.6033 232.762 15.106C233.646 15.6087 234.339 16.3107 234.842 17.212C235.345 18.1133 235.596 19.136 235.596 20.28C235.596 21.3893 235.336 22.3947 234.816 23.296C234.313 24.1973 233.603 24.908 232.684 25.428C231.783 25.948 230.769 26.208 229.642 26.208ZM229.642 23.66C230.561 23.66 231.315 23.348 231.904 22.724C232.511 22.1 232.814 21.2853 232.814 20.28C232.814 19.24 232.511 18.4167 231.904 17.81C231.315 17.2033 230.561 16.9 229.642 16.9C228.723 16.9 227.961 17.2033 227.354 17.81C226.765 18.4167 226.47 19.24 226.47 20.28C226.47 21.2853 226.773 22.1 227.38 22.724C227.987 23.348 228.741 23.66 229.642 23.66ZM245.968 26.208C243.853 26.208 242.224 25.3847 241.08 23.738C239.953 22.0913 239.39 19.812 239.39 16.9C239.39 13.988 239.953 11.7087 241.08 10.062C242.224 8.41533 243.853 7.592 245.968 7.592C248.082 7.592 249.703 8.41533 250.83 10.062C251.974 11.7087 252.546 13.988 252.546 16.9C252.546 19.812 251.974 22.0913 250.83 23.738C249.703 25.3847 248.082 26.208 245.968 26.208ZM245.968 23.66C247.216 23.66 248.16 23.0707 248.802 21.892C249.46 20.7133 249.79 19.0493 249.79 16.9C249.79 14.7507 249.46 13.0867 248.802 11.908C248.16 10.7293 247.216 10.14 245.968 10.14C244.702 10.14 243.749 10.7293 243.108 11.908C242.466 13.0867 242.146 14.7507 242.146 16.9C242.146 19.0493 242.466 20.7133 243.108 21.892C243.749 23.0707 244.702 23.66 245.968 23.66Z" fill="#1E1E1E"/>
</svg>
