<?xml version="1.0" encoding="UTF-8"?><svg id="Vrstva_1" xmlns="http://www.w3.org/2000/svg" viewBox="0 0 429.51 337.57"><defs><style>.cls-1{fill:#fff;stroke-width:0px;}</style></defs><path class="cls-1" d="m430.51,297.77l-64.32-70.42c13.51-14.61,21.78-34.06,21.78-55.39,0-31.83-18.4-59.46-45.22-73.08V0H1v271.8h151.51v62.79h-41.59v2.97h133.26v-2.97h-41.59v-62.79h140.15v-26.76c2.23-1.13,4.39-2.36,6.5-3.68l65.9,72.15,15.36-15.75Zm-230.92,36.82h-44.08v-62.79h44.08v62.79Zm140.15-65.76H4V2.97h335.74v94.44c-3.92-1.8-8-3.29-12.22-4.48V25.38H16.22v221.05h253.94c10.61,4.89,22.42,7.63,34.87,7.63s24.14-2.72,34.71-7.56v22.33Zm-15.22-240.48v63.81c-6.26-1.5-12.78-2.31-19.49-2.31-45.73,0-82.94,36.83-82.94,82.1,0,30.64,17.05,57.39,42.24,71.5H19.22V28.35h305.3Zm18.22,213.35c-.99.53-1.99,1.04-3,1.52-10.51,5.04-22.28,7.87-34.71,7.87-9.48,0-18.57-1.65-27.02-4.66-2.46-.88-4.86-1.87-7.21-2.97-27-12.72-45.71-39.98-45.71-71.5,0-43.63,35.86-79.13,79.94-79.13,6.72,0,13.25.84,19.49,2.39,1.01.25,2.01.53,3,.82,4.22,1.23,8.31,2.78,12.22,4.65,1.01.49,2.01,1,3,1.53,25.1,13.36,42.21,39.61,42.21,69.74s-17.11,56.39-42.21,69.75Zm21.36-12.2l62.29,68.2-11.19,11.46-63.43-69.44c4.44-3.01,8.56-6.43,12.32-10.22ZM92.63,101.52h-38.9v115.99h38.9v-115.99Zm-3,113.02h-32.9v-110.05h32.9v110.05Zm47.63-145.48h-38.9v148.44h38.9V69.06Zm-3,145.48h-32.9V72.04h32.9v142.5Zm47.63-50.42h-38.9v53.39h38.9v-53.39Zm-3,50.42h-32.9v-47.45h32.9v47.45Zm163.87-98.36c-.98-.65-1.99-1.28-3-1.88-3.84-2.28-7.93-4.18-12.22-5.68-.99-.35-1.99-.68-3-.97-6.18-1.84-12.72-2.84-19.5-2.84-37.4,0-67.83,30.13-67.83,67.15s30.43,67.15,67.83,67.15c6.77,0,13.32-1,19.5-2.84,1.01-.31,2.01-.63,3-.97,4.28-1.5,8.38-3.4,12.22-5.68,1.02-.6,2.02-1.23,3-1.88,18.14-12.07,30.11-32.57,30.11-55.78s-11.96-43.71-30.11-55.78Zm0,108.14c-.98.7-1.98,1.37-3,2.01-3.82,2.4-7.91,4.43-12.22,6.01-.99.37-1.99.7-3,1.02-6.16,1.92-12.71,2.96-19.5,2.96-35.84,0-65-28.87-65-64.35s29.16-64.35,65-64.35c6.79,0,13.34,1.04,19.5,2.96,1.01.32,2.01.66,3,1.02,4.31,1.58,8.39,3.6,12.22,6.01,1.02.64,2.02,1.31,3,2,16.5,11.68,27.28,30.79,27.28,52.36s-10.78,40.68-27.28,52.36Z"/></svg>