<?xml version="1.0" encoding="UTF-8"?><svg id="Vrstva_1" xmlns="http://www.w3.org/2000/svg" viewBox="0 0 329.05 328.31"><defs><style>.cls-1{fill:#fff;stroke-width:0px;}</style></defs><path class="cls-1" d="m1,264.35h145.88v61.07h-40.04v2.89h128.31v-2.89h-40.05v-61.07h134.95V0H1v264.35Zm191.21,61.07h-42.44v-61.07h42.44v61.07ZM3.89,2.89h323.28v258.57H3.89V2.89Zm11.76,236.78h299.75V24.68H15.65v214.99Zm2.89-212.1h293.96v209.21H18.54V27.57Zm25.36,63.72h230.26v2.89H43.9v-2.89Zm0-24.68h187.76v2.89H43.9v-2.89Zm0,74.6h145.26v2.89H43.9v-2.89Zm0-24.68h187.76v2.89H43.9v-2.89Zm0,75.2h187.76v2.89H43.9v-2.89Zm0-24.68h230.26v2.89H43.9v-2.89Z"/></svg>