<?xml version="1.0" encoding="UTF-8"?><svg id="Vrstva_1" xmlns="http://www.w3.org/2000/svg" viewBox="0 0 329.06 328.31"><defs><style>.cls-1{fill:#fff;stroke-width:0px;}</style></defs><path class="cls-1" d="m1,264.35h144.82v61.06h-40.05v2.89h128.32v-2.89h-40.05v-61.06h136.02V0H1v264.35Zm190.15,61.06h-42.44v-61.06h42.44v61.06ZM3.89,2.89h323.28v258.57H3.89V2.89Zm11.76,236.78h299.75V24.68H15.65v214.99ZM166.97,27.58h145.54v209.2h-145.54V27.58Zm-148.43,0h145.54v209.2H18.55V27.57Zm109.84,79.54l7.21-7.21-13.39-13.39-7.21,7.21c-4.28-2.73-8.98-4.67-13.98-5.77v-10.21h-18.94v10.21c-5,1.1-9.69,3.04-13.98,5.77l-7.2-7.21-13.4,13.39,7.21,7.21c-2.73,4.29-4.67,8.98-5.78,13.98h-10.2v18.94h10.2c1.1,5,3.04,9.69,5.78,13.98l-7.21,7.21,13.4,13.39,7.2-7.21c4.29,2.74,8.98,4.68,13.98,5.78v10.21h18.94v-10.21c5-1.1,9.7-3.04,13.98-5.78l7.21,7.21,13.39-13.39-7.21-7.21c2.73-4.29,4.67-8.98,5.78-13.98h10.2v-18.94h-10.2c-1.11-5-3.04-9.69-5.78-13.98Zm13.09,30.03h-9.69l-.22,1.17c-1.05,5.45-3.15,10.52-6.23,15.08l-.67.99,6.84,6.84-9.3,9.3-6.84-6.84-.99.67c-4.56,3.09-9.63,5.18-15.09,6.23l-1.17.23v9.69h-13.16v-9.69l-1.17-.23c-5.45-1.05-10.53-3.14-15.08-6.23l-.99-.67-6.83,6.84-9.31-9.3,6.84-6.84-.67-.99c-3.08-4.56-5.18-9.63-6.23-15.08l-.23-1.17h-9.69v-13.16h9.69l.23-1.17c1.05-5.45,3.14-10.52,6.23-15.08l.67-.99-6.84-6.84,9.31-9.3,6.83,6.84.99-.67c4.56-3.08,9.63-5.18,15.08-6.23l1.17-.23v-9.69h13.16v9.69l1.17.23c5.45,1.05,10.53,3.14,15.09,6.23l.99.67,6.84-6.84,9.3,9.3-6.84,6.84.67.99c3.09,4.56,5.18,9.63,6.23,15.08l.22,1.17h9.69v13.16Zm-49.93-37.56c-17.08,0-30.98,13.9-30.98,30.98s13.9,30.98,30.98,30.98,30.98-13.9,30.98-30.98-13.9-30.98-30.98-30.98Zm0,59.07c-15.49,0-28.09-12.6-28.09-28.09s12.61-28.09,28.09-28.09,28.09,12.6,28.09,28.09-12.61,28.09-28.09,28.09Zm98.57-50.45h7.56v17.85l16.18-17.85h79.12v-57.55h-102.86v57.55Zm2.89-54.66h97.08v51.77h-77.51l-12.01,13.25v-13.25h-7.56v-51.77Zm-2.89,151.9h79.12l16.18,17.85v-17.85h7.56v-57.55h-102.85v57.55Zm2.89-54.66h97.07v51.77h-7.56v13.25l-12-13.25h-77.51v-51.77Z"/></svg>