<?xml version="1.0" encoding="UTF-8"?><svg id="Vrstva_1" xmlns="http://www.w3.org/2000/svg" viewBox="0 0 361.91 264.23"><defs><style>.cls-1{stroke-width:0px;}</style></defs><path class="cls-1" d="m45,187.28h86.34c6.09,43.42,43.47,76.95,88.54,76.95s82.45-33.53,88.54-76.95h10.48c24.26,0,44-19.74,44-43.99s-19.74-44-44-44h-22.11c.17-1.84.24-3.57.24-5.24,0-34.11-27.75-61.87-61.87-61.87-18.95,0-36.89,8.79-48.6,23.66C176.84,22.81,146.52,0,111.81,0,68.83,0,33.86,34.97,33.86,77.96c0,7.51,1.07,14.93,3.19,22.1C16.38,103.84,1,122.13,1,143.28c0,24.26,19.74,43.99,44,43.99Zm194.01-64.66c9.46,1.33,18.35,3.61,26.36,6.69,3.08,8.01,5.37,16.9,6.69,26.36-9-1.65-19.05-2.85-29.49-3.56-.72-10.45-1.92-20.49-3.56-29.49Zm1.4,52.18c0,3.25-.04,6.43-.12,9.54-.01.5-.03.98-.05,1.47-.01.49-.03.98-.05,1.47-.09,2.55-.2,5.04-.34,7.48-6.32.36-12.98.56-19.97.56s-13.64-.2-19.96-.56c-.14-2.44-.25-4.94-.34-7.48-.02-.49-.03-.98-.05-1.47-.01-.49-.03-.97-.05-1.47-.08-3.11-.12-6.29-.12-9.54,0-6.98.2-13.64.56-19.96,6.32-.36,12.98-.56,19.96-.56s13.65.2,19.97.56c.36,6.32.56,12.98.56,19.96Zm-.73-22.87c-6.53-.39-13.18-.59-19.8-.59s-13.26.2-19.79.59c.73-11.14,1.99-21.11,3.6-29.69,5.25-.62,10.65-.95,16.19-.95s10.94.34,16.19.95c1.61,8.58,2.87,18.55,3.6,29.69Zm-42.47.19c-10.45.71-20.5,1.91-29.49,3.56,1.33-9.46,3.61-18.35,6.69-26.36,8.02-3.08,16.9-5.36,26.37-6.69-1.65,9-2.85,19.05-3.56,29.49Zm-.19,2.89c-.39,6.52-.59,13.17-.59,19.79,0,3.18.05,6.37.14,9.54.01.49.03.98.04,1.47.02.49.03.98.05,1.47.09,2.45.21,4.89.35,7.31-11.14-.74-21.11-1.99-29.69-3.6-.14-1.23-.28-2.46-.39-3.71-.04-.49-.08-.98-.12-1.47-.04-.49-.09-.98-.11-1.47-.22-3.13-.34-6.32-.34-9.54,0-5.53.34-10.94.95-16.19,8.58-1.61,18.55-2.87,29.69-3.6Zm.19,42.47c.71,10.45,1.91,20.49,3.56,29.49-9.46-1.33-18.35-3.61-26.36-6.69-3.08-8.02-5.36-16.9-6.69-26.37,9,1.65,19.05,2.85,29.49,3.56Zm2.89.19c6.52.39,13.17.59,19.79.59s13.27-.2,19.8-.59c-.74,11.14-1.99,21.1-3.6,29.68-5.24.62-10.65.95-16.19.95s-10.94-.34-16.19-.95c-1.61-8.58-2.87-18.54-3.6-29.68Zm42.47-.19c10.44-.71,20.49-1.91,29.49-3.56-1.33,9.47-3.61,18.35-6.69,26.37-8.01,3.07-16.9,5.36-26.36,6.69,1.65-9,2.84-19.04,3.56-29.49Zm.19-2.89c.14-2.42.26-4.86.36-7.31.02-.49.03-.98.05-1.47.01-.49.03-.98.04-1.47.09-3.17.14-6.36.14-9.54,0-6.62-.2-13.27-.59-19.79,11.14.74,21.11,1.99,29.68,3.6.62,5.24.95,10.65.95,16.19,0,3.23-.11,6.41-.33,9.54-.03.49-.07.98-.12,1.47-.04.49-.07.98-.11,1.47-.11,1.25-.25,2.48-.39,3.71-8.57,1.61-18.54,2.86-29.68,3.6Zm26.23-63.81c19.67,8.43,33.43,21.76,36.64,37.11-5.44-4.9-16.52-8.83-30.53-11.63-1.21-9.07-3.3-17.64-6.11-25.48Zm-1.4-3.69c-6.78-16.97-17.07-30.08-29.23-36.78,32.89,7.19,58.82,33.13,66.01,66.01-6.7-12.16-19.81-22.45-36.78-29.23Zm-3.69-1.4c-7.84-2.81-16.4-4.9-25.47-6.11-2.8-14.01-6.74-25.09-11.63-30.53,15.35,3.21,28.68,16.97,37.11,36.64Zm-28.41-6.46c-5.07-.56-10.28-.88-15.6-.88s-10.53.31-15.59.88c4.01-19.49,9.91-30.92,15.59-30.92s11.59,11.44,15.6,30.92Zm-34.14.35c-9.07,1.21-17.64,3.3-25.47,6.11,8.42-19.66,21.75-33.43,37.1-36.64-4.89,5.44-8.83,16.52-11.63,30.53Zm-29.17,7.51c-16.97,6.78-30.08,17.06-36.78,29.23,7.19-32.88,33.13-58.82,66.01-66.01-12.17,6.7-22.45,19.81-29.23,36.78Zm-1.4,3.69c-2.81,7.84-4.9,16.4-6.11,25.47-14.01,2.8-25.09,6.73-30.53,11.63,3.22-15.35,16.97-28.68,36.64-37.1Zm-6.46,28.41c-.56,5.07-.88,10.28-.88,15.6,0,3.22.11,6.41.32,9.54.03.49.08.98.12,1.47.04.49.08.98.12,1.47.09,1.05.2,2.08.31,3.12-4.59-.94-8.75-1.99-12.4-3.12-1.54-.48-2.98-.97-4.35-1.47-1.3-.48-2.52-.97-3.65-1.47-6.8-2.99-10.53-6.3-10.53-9.54,0-5.68,11.44-11.59,30.92-15.6Zm-29.52,25.14c-.25-.87-.47-1.75-.66-2.63,1.01.91,2.21,1.78,3.6,2.63.82.5,1.7.99,2.64,1.47,1,.51,2.08.99,3.22,1.47,5.66,2.38,12.86,4.42,21.07,6.06,1.21,9.07,3.3,17.64,6.11,25.47-17.25-7.39-29.95-18.54-34.99-31.53-.19-.49-.38-.98-.55-1.47-.17-.48-.3-.98-.45-1.47Zm.6,8.94c6.7,12.16,19.81,22.45,36.78,29.23,6.78,16.97,17.06,30.08,29.23,36.77-32.89-7.19-58.82-33.12-66.01-66Zm40.47,30.63c7.84,2.81,16.4,4.9,25.47,6.11,2.8,14.01,6.74,25.09,11.63,30.53-15.35-3.22-28.68-16.98-37.1-36.64Zm44.01,37.38c-5.68,0-11.58-11.43-15.6-30.92,5.07.57,10.28.88,15.6.88s10.53-.31,15.6-.88c-4.01,19.49-9.92,30.92-15.6,30.92Zm18.54-31.27c9.07-1.21,17.63-3.3,25.47-6.11-8.43,19.66-21.75,33.43-37.11,36.64,4.9-5.44,8.83-16.52,11.63-30.53Zm-.06,29.26c12.16-6.7,22.45-19.81,29.23-36.77,16.97-6.78,30.08-17.07,36.78-29.23-7.19,32.88-33.12,58.82-66.01,66Zm66.61-74.94c-.14.49-.28.99-.45,1.47-.17.49-.36.98-.55,1.47-5.04,12.99-17.74,24.14-34.99,31.53,2.81-7.83,4.9-16.4,6.11-25.47,8.21-1.64,15.41-3.67,21.07-6.06,1.13-.48,2.21-.96,3.22-1.47.94-.48,1.82-.97,2.64-1.47,1.39-.84,2.59-1.72,3.6-2.63-.19.88-.41,1.76-.66,2.63Zm-9.12,0c-1.13.5-2.35.99-3.65,1.47-1.36.5-2.81.99-4.35,1.47-3.65,1.13-7.81,2.17-12.4,3.12.11-1.03.22-2.07.31-3.12.04-.49.08-.98.12-1.47.04-.49.08-.98.11-1.47.21-3.13.33-6.32.33-9.54,0-5.32-.31-10.53-.88-15.6,19.49,4.01,30.92,9.92,30.92,15.6,0,3.24-3.73,6.55-10.53,9.54ZM39.16,102.69l1.72-.25-.53-1.65c-2.35-7.38-3.55-15.06-3.55-22.83C36.8,36.59,70.45,2.94,111.81,2.94c34.38,0,64.28,23.25,72.72,56.54l.78,3.08,1.84-2.59c11.06-15.57,29.02-24.86,48.02-24.86,32.49,0,58.92,26.44,58.92,58.93,0,2.06-.12,4.21-.38,6.55l-.18,1.63h25.37c22.64,0,41.06,18.41,41.06,41.06s-18.42,41.05-41.06,41.05h-10.11c.34-3.13.51-6.32.51-9.54,0-49.31-40.12-89.43-89.43-89.43s-89.43,40.12-89.43,89.43c0,3.22.18,6.41.51,9.54H45c-22.64,0-41.06-18.42-41.06-41.05,0-20.28,15.14-37.73,35.22-40.59Z"/></svg>