<?xml version="1.0" encoding="UTF-8"?><svg id="Vrstva_1" xmlns="http://www.w3.org/2000/svg" viewBox="0 0 329.05 328.31"><defs><style>.cls-1{stroke-width:0px;}</style></defs><path class="cls-1" d="m1,264.35h145.88v61.07h-40.04v2.89h128.31v-2.89h-40.05v-61.07h134.95V0H1v264.35Zm191.21,61.07h-42.44v-61.07h42.44v61.07ZM3.89,2.89h323.28v258.57H3.89V2.89Zm11.76,236.78h299.75V24.68H15.65v214.99Zm2.89-212.1h293.96v209.21H18.54V27.57Zm165,66.12h80.16v-24.61h-80.16v24.61Zm2.89-21.71h74.38v18.83h-74.38v-18.83Zm111.82-1.42l1.95,1.95-16.84,16.84-9.49-9.49,1.95-1.95,7.54,7.54,14.9-14.9Zm-114.71,56.99h80.16v-24.61h-80.16v24.61Zm2.89-21.71h74.38v18.83h-74.38v-18.83Zm111.82-1.42l1.95,1.95-16.84,16.84-9.49-9.49,1.95-1.95,7.54,7.54,14.9-14.9Zm-114.71,56.99h80.16v-24.61h-80.16v24.61Zm2.89-21.71h74.38v18.82h-74.38v-18.82Zm111.82-1.42l1.95,1.95-16.84,16.84-9.49-9.49,1.95-1.95,7.54,7.54,14.9-14.9Zm-114.71,56.99h80.16v-24.61h-80.16v24.61Zm2.89-21.72h74.38v18.83h-74.38v-18.83Zm111.82.02l1.95,1.95-16.84,16.84-9.49-9.49,1.95-1.95,7.54,7.54,14.9-14.9ZM93.69,77.84h-1.45c-32.38,0-58.72,26.35-58.72,58.73s26.34,58.73,58.72,58.73,58.73-26.34,58.73-58.73v-1.45h-57.28v-57.29Zm54.37,60.18c-.76,30.12-25.51,54.39-55.82,54.39s-55.83-25.05-55.83-55.84,24.27-55.05,54.39-55.82v57.27h57.27Zm-40.78-71.55h-1.44v60.17h60.17v-1.45c0-32.38-26.35-58.73-58.73-58.73Zm1.44,57.28v-54.38c29.64.76,53.62,24.73,54.37,54.38h-54.37Z"/></svg>