<?xml version="1.0" encoding="UTF-8"?><svg id="Vrstva_1" xmlns="http://www.w3.org/2000/svg" viewBox="0 0 219.93 230.09"><defs><style>.cls-1{stroke-width:0px;}</style></defs><path class="cls-1" d="m220.93,4.34h-24.33l-.88,1.01L5.21,225.21l-4.21,4.86h24.33l.88-1.01L216.72,9.2l4.21-4.86ZM23.99,227.13H7.43L197.93,7.28h16.56L23.99,227.13Zm155.36-13.44c-8.15,0-13.18-5.05-14.56-14.62l-.23-1.54-17.3,3.19.16,1.39c1.98,17.26,14.22,27.99,31.92,27.99,19.52,0,32.63-13.84,32.63-34.44s-12.48-34.45-31.79-34.45c-4.21,0-8.75,1.24-12.35,3.29l2.38-19.82h36.32v-16.4h-51.44l-5.71,57.14,11.9,2.42.57-.76c4.5-6,10.88-9.45,17.5-9.45,9.42,0,14.82,6.58,14.82,18.04s-5.54,18.03-14.82,18.03Zm16.33-18.03c0-11.44-5.3-19.54-16.33-19.54-7.4,0-14.1,3.91-18.7,10.05l-9.63-1.96,5.44-54.43h48.57v13.4h-36.15l-2.93,24.42c3.35-2.79,8.93-4.88,14.24-4.88,19.68,0,30.29,14.1,30.29,32.94s-11.87,32.94-31.13,32.94c-16.19,0-28.47-9.63-30.43-26.66l14.37-2.65c1.67,11.59,8.24,15.91,16.05,15.91,10.61,0,16.33-7.96,16.33-19.54Zm-32.38,3.63l-14.37,2.65c1.95,17.03,14.23,26.66,30.43,26.66,19.26,0,31.13-13.95,31.13-32.94s-10.61-32.94-30.29-32.94c-5.3,0-10.89,2.09-14.24,4.88l2.93-24.42h36.15v-13.4h-48.57l-5.44,54.43,9.63,1.96c4.6-6.14,11.3-10.05,18.7-10.05,11.03,0,16.33,8.1,16.33,19.54s-5.72,19.54-16.33,19.54c-7.82,0-14.38-4.33-16.05-15.91Zm33.88-3.63c0-13.18-6.66-21.04-17.83-21.04-7.29,0-14.28,3.59-19.32,9.89l-7.39-1.5,5.17-51.73h45.71v10.4h-35.98l-3.54,29.51,2.91-2.42c3.26-2.72,8.59-4.54,13.27-4.54,17.76,0,28.79,12.05,28.79,31.44s-11.9,31.44-29.62,31.44c-15.58,0-26.48-9.13-28.75-23.94l11.47-2.12c2.59,13.58,11.86,15.66,17.28,15.66,11,0,17.83-8.06,17.83-21.04ZM61.51,51.75c9.77,0,16.47-6.98,16.47-18.43,0-10.74-6.84-18.43-16.47-18.43s-16.47,7.68-16.47,18.43c0,11.44,6.7,18.43,16.47,18.43Zm0-35.35c8.81,0,14.97,6.96,14.97,16.92s-5.87,16.92-14.97,16.92-14.97-6.64-14.97-16.92,6.16-16.92,14.97-16.92Zm-32.77,16.92c0,19.31,13.43,33.32,31.93,33.32h.28l-21.04,36.29h19.94l29.48-51.15c3.28-5.79,4.94-12,4.94-18.47C94.29,14.33,80.2,0,61.52,0S28.75,14.33,28.75,33.33ZM61.51,1.5c18.15,0,31.27,13.96,31.27,31.82,0,6.56-1.82,12.56-4.75,17.73l-29.04,50.39h-16.47l21.36-36.85c-.84.42-2.24.56-3.21.56-18.01,0-30.43-13.4-30.43-31.82S43.37,1.5,61.51,1.5Zm0,51.75c10.92,0,17.97-7.82,17.97-19.93s-7.56-19.93-17.97-19.93-17.97,8.19-17.97,19.93,7.05,19.93,17.97,19.93Zm0-38.36c9.63,0,16.47,7.68,16.47,18.43,0,11.44-6.7,18.43-16.47,18.43s-16.47-6.98-16.47-18.43c0-10.74,6.7-18.43,16.47-18.43Zm-.83,50.25c.97,0,2.37-.14,3.21-.56l-21.36,36.85h16.47l29.04-50.39c2.93-5.16,4.75-11.16,4.75-17.73,0-17.87-13.12-31.82-31.27-31.82s-31.26,13.96-31.26,31.82,12.42,31.82,30.43,31.82Zm.83-62.14c16.97,0,29.77,13.03,29.77,30.32,0,5.94-1.53,11.66-4.54,16.97l-28.61,49.63h-12.99l22.58-38.95-4.5,2.27c-.47.23-1.51.4-2.54.4-17.02,0-28.92-12.47-28.92-30.32S44.55,3,61.52,3Z"/></svg>