<?xml version="1.0" encoding="UTF-8"?><svg id="Vrstva_1" xmlns="http://www.w3.org/2000/svg" viewBox="0 0 219.92 226.14"><defs><style>.cls-1{fill:#e52a18;stroke-width:0px;}</style></defs><path class="cls-1" d="m219.92.39h-24.33l-.88,1.01L4.21,221.26l-4.21,4.86h24.33l.88-1.01L215.72,5.25l4.2-4.86ZM22.99,223.18H6.43L196.93,3.33h16.56L22.99,223.18Zm15.92-135.15c9.07,0,16.47-6.14,16.47-16.47s-7.39-15.91-16.47-15.91-16.47,5.58-16.47,15.91,7.4,16.47,16.47,16.47Zm0-30.88c9.09,0,14.97,5.65,14.97,14.41s-6.15,14.96-14.97,14.96-14.97-6.15-14.97-14.96,5.88-14.41,14.97-14.41Zm0-15.32c7.68,0,13.26-5.86,13.26-13.82s-5.58-13.68-13.26-13.68-13.26,5.86-13.26,13.68,5.58,13.82,13.26,13.82Zm0-25.99c6.81,0,11.76,5.12,11.76,12.18s-4.94,12.32-11.76,12.32-11.76-5.18-11.76-12.32,4.95-12.18,11.76-12.18Zm0,87.09c16.29,0,32.77-10.77,32.77-31.37,0-10.22-4.38-18.69-12.38-24.07,5.59-5.21,8.76-12.26,8.76-19.62,0-15.89-12.53-27.88-29.14-27.88S9.77,11.99,9.77,27.88c0,7.58,3.09,14.48,8.73,19.63-7.99,5.38-12.37,13.84-12.37,24.05,0,20.59,16.49,31.37,32.77,31.37Zm-17.86-55.24c-6-4.75-9.77-11.73-9.77-19.82C11.27,13.37,22.59,1.5,38.91,1.5s27.64,11.87,27.64,26.38c0,8.1-3.91,15.07-9.77,19.82,7.96,4.6,13.4,12.7,13.4,23.86,0,18.85-14.51,29.87-31.26,29.87s-31.27-11.02-31.27-29.87c0-11.16,5.45-19.26,13.4-23.86Zm17.86,41.84c10.58,0,17.97-7.39,17.97-17.97s-7.22-17.42-17.97-17.42-17.97,7-17.97,17.42,7.39,17.97,17.97,17.97Zm0-33.88c9.07,0,16.47,5.58,16.47,15.91s-7.39,16.47-16.47,16.47-16.47-6.14-16.47-16.47,7.4-15.91,16.47-15.91Zm0-12.32c8.56,0,14.76-6.44,14.76-15.32s-6.34-15.18-14.76-15.18-14.76,6.53-14.76,15.18,6.2,15.32,14.76,15.32Zm0-29c7.68,0,13.26,5.86,13.26,13.68s-5.58,13.82-13.26,13.82-13.26-5.86-13.26-13.82,5.58-13.68,13.26-13.68Zm0,87.09c16.75,0,31.26-11.02,31.26-29.87,0-11.16-5.44-19.26-13.4-23.86,5.86-4.75,9.77-11.73,9.77-19.82,0-14.52-11.31-26.38-27.64-26.38S11.27,13.37,11.27,27.88c0,8.1,3.77,15.07,9.77,19.82-7.96,4.6-13.4,12.7-13.4,23.86,0,18.85,14.52,29.87,31.27,29.87Zm-17.11-52.44l1.91-1.11-1.73-1.37c-5.93-4.69-9.2-11.31-9.2-18.64,0-14.18,11.23-24.88,26.13-24.88s26.14,10.7,26.14,24.88c0,7.22-3.27,13.84-9.22,18.65l-1.7,1.37,1.89,1.1c8.16,4.72,12.65,12.74,12.65,22.57,0,19.49-15.43,28.36-29.76,28.36s-29.76-8.87-29.76-28.36c0-9.83,4.49-17.85,12.65-22.57Zm158.99,160.74c-8.15,0-13.18-5.05-14.56-14.62l-.23-1.54-17.29,3.19.16,1.39c1.98,17.26,14.22,27.99,31.92,27.99,19.52,0,32.63-13.84,32.63-34.44s-12.48-34.45-31.79-34.45c-4.21,0-8.75,1.24-12.35,3.28l2.38-19.82h36.32v-16.4h-51.44l-5.71,57.14,11.9,2.42.57-.76c4.5-6,10.87-9.45,17.5-9.45,9.43,0,14.83,6.57,14.83,18.04s-5.54,18.04-14.83,18.04Zm16.33-18.04c0-11.44-5.3-19.54-16.33-19.54-7.4,0-14.1,3.91-18.7,10.05l-9.63-1.96,5.44-54.43h48.57v13.4h-36.15l-2.93,24.43c3.35-2.79,8.94-4.89,14.24-4.89,19.68,0,30.29,14.1,30.29,32.94s-11.87,32.94-31.13,32.94c-16.19,0-28.47-9.63-30.42-26.66l14.37-2.65c1.68,11.59,8.24,15.91,16.05,15.91,10.61,0,16.33-7.96,16.33-19.54Zm-32.38,3.63l-14.37,2.65c1.95,17.03,14.23,26.66,30.42,26.66,19.26,0,31.13-13.96,31.13-32.94s-10.61-32.94-30.29-32.94c-5.3,0-10.89,2.1-14.24,4.89l2.93-24.43h36.15v-13.4h-48.57l-5.44,54.43,9.63,1.96c4.6-6.15,11.3-10.05,18.7-10.05,11.03,0,16.33,8.1,16.33,19.54s-5.72,19.54-16.33,19.54c-7.81,0-14.37-4.32-16.05-15.91Zm33.88-3.63c0-13.17-6.66-21.04-17.83-21.04-7.29,0-14.28,3.59-19.32,9.89l-7.39-1.5,5.17-51.73h45.71v10.4h-35.98l-3.54,29.51,2.91-2.42c3.26-2.72,8.59-4.54,13.27-4.54,17.76,0,28.79,12.05,28.79,31.44s-11.9,31.44-29.63,31.44c-15.57,0-26.47-9.13-28.75-23.94l11.47-2.12c2.59,13.59,11.86,15.66,17.28,15.66,11,0,17.83-8.06,17.83-21.04Z"/></svg>