<?xml version="1.0" encoding="UTF-8"?><svg id="Vrstva_1" xmlns="http://www.w3.org/2000/svg" viewBox="0 0 412.55 327.45"><defs><style>.cls-1{stroke-width:0px;}</style></defs><path class="cls-1" d="m337.54,232.07l.38.42c4.24-2.89,8.19-6.18,11.79-9.82l-1.63-1.8,2.21-1.99,1.43,1.58c13-14.15,21.02-32.95,21.02-53.64,0-30.85-17.72-57.59-43.48-70.73v.69h-2.97v-2.12c-3.74-1.72-7.62-3.14-11.65-4.26v.87h-2.97v-1.64c-5.9-1.4-12.03-2.23-18.35-2.23-43.8,0-79.43,35.63-79.43,79.42,0,29.74,16.45,55.67,40.71,69.28h5.14v2.59c10.22,4.79,21.57,7.55,33.58,7.55s22.91-2.64,32.97-7.26v-2.14h2.97v.71c2.09-1.07,4.11-2.23,6.09-3.47l-.02-.02,2.21-1.99Zm-44.23,11.2c-42.16,0-76.46-34.3-76.46-76.45s34.3-76.45,76.46-76.45,76.45,34.3,76.45,76.45-34.3,76.45-76.45,76.45Zm0-141.44c-35.84,0-64.99,29.16-64.99,64.99s29.16,64.99,64.99,64.99,64.99-29.15,64.99-64.99-29.15-64.99-64.99-64.99Zm0,127.01c-34.2,0-62.02-27.82-62.02-62.02s27.82-62.02,62.02-62.02,62.02,27.82,62.02,62.02-27.82,62.02-62.02,62.02Zm32.97,31.87H3.97V2.97h322.31v91.67c1,.46,1.99.93,2.97,1.43V0H1v263.67h145.49v60.81h-39.9v2.97h127.96v-2.97h-39.89v-60.81h134.58v-26.13c-.98.5-1.97.97-2.97,1.43v21.73Zm-134.58,63.78h-42.23v-60.81h42.23v60.81Zm157.73-157.97c-.19-.32-19.14-31.6-55.71-31.62h-.05c-36.58.01-55.52,31.3-55.71,31.62l-.45.76.45.76c.19.32,19.13,31.61,55.71,31.62h.05c36.58-.01,55.53-31.31,55.71-31.62l.45-.76-.45-.76Zm-108.43.76c2.42-3.66,13.85-19.53,33.84-26.31-8.19,5.89-13.53,15.48-13.53,26.31s5.34,20.44,13.53,26.32c-19.99-6.78-31.42-22.66-33.84-26.32Zm52.69,29.41h-.02c-16.21-.01-29.39-13.2-29.39-29.41s13.18-29.39,29.39-29.4h.05c16.21.02,29.39,13.2,29.39,29.4s-13.19,29.4-29.39,29.41h-.02Zm18.86-3.1c8.19-5.88,13.53-15.49,13.53-26.32s-5.34-20.43-13.53-26.31c19.99,6.78,31.42,22.65,33.84,26.31-2.42,3.66-13.85,19.53-33.84,26.32Zm2.09-168.98v65.77c-.98-.27-1.97-.53-2.97-.77V27.58H18.59v208.51h236c1.67.94,3.4,1.77,5.14,2.59v.38H15.62V24.61h299.02Zm-20.95,127.13c-8.57,0-15.54,6.97-15.54,15.53s6.97,15.54,15.54,15.54,15.54-6.97,15.54-15.54-6.97-15.53-15.54-15.53Zm0,28.1c-6.93,0-12.57-5.64-12.57-12.57s5.64-12.56,12.57-12.56,12.57,5.64,12.57,12.56-5.64,12.57-12.57,12.57Zm58.03,40.61l61.83,68.36-14.82,15.34-63.38-70.08c.85-.54,1.74-1.03,2.57-1.59l60.89,67.32,10.67-11.05-59.77-66.08c.7-.71,1.34-1.48,2.01-2.21Zm-91.99,18.23c-1.74-.82-3.47-1.65-5.14-2.59h5.14v2.59Zm51.94-149.07c1,.24,1.99.49,2.97.77v.87h-2.97v-1.64Zm38.62,129.25l1.43,1.58c-.67.73-1.31,1.5-2.01,2.21l-1.63-1.8,2.21-1.99Zm-12.37,13.61c-.83.57-1.71,1.06-2.57,1.59l-.02-.02,2.21-1.99.38.42Zm-8.66,4.35v.71c-.98.5-1.97.97-2.97,1.43v-2.14h2.97Zm-2.97-142.19c1,.46,1.99.93,2.97,1.43v.69h-2.97v-2.12Zm-193.75,28.21c.07.16.17.3.24.45l-41.59,15.82c-.03-.14-.09-.28-.12-.42l41.47-15.85Zm-60.3-56.16c.03-.06.07-.12.1-.19l62.09,40.63c-.08.1-.16.19-.24.29l-61.95-40.73Zm17.93,69.64c-.07-.13-.14-.26-.21-.39l41.64-15.92c.04.17.11.32.15.49l-41.59,15.82Zm42.69-26.67c-.06.11-.13.22-.18.33l-62.09-40.82c.05-.05.09-.11.13-.16l62.13,40.66Zm-61.23-41.85c.23-.36.42-.74.61-1.12l61.95,40.73c-.22.3-.42.61-.62.93l-61.94-40.54Zm60.57,54.12c.11.31.21.62.34.92l-41.47,15.85c-.08-.34-.2-.67-.31-1.01l41.44-15.76Zm-.44-1.42c.13.48.27.96.44,1.42l-41.44,15.76c-.17-.47-.36-.92-.59-1.37l41.59-15.82Zm1.81-12.16c-.26.42-.49.86-.71,1.31l-62.13-40.66c.32-.38.63-.77.9-1.19l61.94,40.54Zm28.13,74.95c-.11.04-.23.07-.34.11l-12.22-51.5c.14-.02.3-.02.44-.04l12.13,51.44Zm-2.6-76.2c-.08-.11-.17-.21-.26-.32l47.86-31.9c.03.06.07.12.1.19l-47.7,32.03Zm-7.08,24.08c.14-.05.29-.08.43-.13l12.19,51.7c-.12,0-.24.03-.36.04l-12.25-51.61Zm56.37-53.84c.05.05.09.12.14.17l-47.84,32.12c-.06-.12-.13-.24-.2-.36l47.9-31.93Zm-48.61,30.62c-.2-.3-.45-.56-.67-.85l47.7-32.03c.2.38.38.76.63,1.11l-47.66,31.77Zm3.01,75.01c-.37.08-.72.22-1.08.34l-12.13-51.44c.35-.06.68-.16,1.02-.24l12.19,51.35Zm-12.19-51.35c.49-.12.96-.28,1.42-.44l12.25,51.61c-.5.04-1,.08-1.49.19l-12.19-51.35Zm56.84-55.44c.28.41.62.78.95,1.15l-47.9,31.93c-.23-.44-.44-.9-.71-1.31l47.66-31.77Zm19.97-6.19c0,6.04-4.91,10.95-10.95,10.95-1.09,0-2.12-.21-3.11-.5l.18-.43c.94.28,1.91.47,2.93.47,5.78,0,10.48-4.7,10.48-10.48s-4.7-10.48-10.48-10.48-10.48,4.7-10.48,10.48c0,1.67.43,3.23,1.13,4.63l-.39.26c-.75-1.48-1.21-3.12-1.21-4.89,0-6.04,4.91-10.95,10.96-10.95s10.95,4.91,10.95,10.95Zm-13.89,10.01l-.18.43c-1.86-.55-3.52-1.56-4.82-2.93l.39-.26c1.25,1.3,2.83,2.24,4.61,2.76Zm-6.71-4.93c-.03-.06-.07-.12-.1-.19l.39-.26c.03.06.07.12.1.19l-.39.26Zm1.97,2c.05.05.09.12.14.17l-.39.26c-.05-.05-.09-.11-.14-.17l.39-.26Zm-1.34-.89c-.24-.35-.43-.74-.63-1.11l.39-.26c.2.38.39.76.63,1.12l-.39.26Zm.39-.26c.28.41.61.79.95,1.15l-.39.26c-.34-.37-.67-.74-.95-1.15l.39-.26Zm1.74-2.95l-.39.26c-.45-.99-.71-2.09-.71-3.24,0-4.4,3.58-7.98,7.99-7.98s7.98,3.58,7.98,7.98-3.58,7.98-7.98,7.98c-.68,0-1.34-.11-1.97-.28l.18-.43c.58.14,1.17.24,1.79.24,4.14,0,7.51-3.37,7.51-7.51s-3.37-7.51-7.51-7.51-7.51,3.37-7.51,7.51c0,1.06.23,2.07.63,2.98Zm5.09,4.28l-.18.43c-1.31-.34-2.48-.98-3.44-1.87l.41-.27c.9.82,2,1.41,3.22,1.71Zm-5-4.11l-.39.26c-.03-.06-.07-.12-.1-.18l.39-.26c.03.06.07.12.1.18Zm1.78,2.39l-.41.27c-.05-.05-.12-.09-.17-.14l.41-.27c.05.05.11.09.16.14Zm-1.14-1.27l-.39.26c-.25-.35-.45-.73-.63-1.12l.39-.26c.18.39.39.77.64,1.12Zm.57,1.41c-.36-.35-.68-.73-.96-1.14l.39-.26c.29.41.62.79.98,1.13l-.41.27Zm-2.93-1.62l-.84.56c-.7-1.4-1.13-2.96-1.13-4.63,0-5.78,4.7-10.48,10.48-10.48s10.48,4.7,10.48,10.48-4.7,10.48-10.48,10.48c-1.03,0-2-.19-2.93-.47l.39-.94c.81.23,1.66.39,2.54.39,5.23,0,9.47-4.24,9.47-9.46s-4.24-9.46-9.47-9.46-9.47,4.24-9.47,9.46c0,1.46.36,2.83.95,4.07Zm5.97,5.01l-.39.94c-1.77-.52-3.36-1.46-4.61-2.76l.84-.56c1.13,1.13,2.57,1.94,4.15,2.39Zm-6.71-4.26c-.03-.06-.07-.12-.1-.19l.84-.56c.03.06.07.12.1.18l-.84.56Zm2.56,1.87l-.84.56c-.05-.05-.09-.11-.14-.17l.84-.56c.05.05.09.11.14.16Zm-1.93-.76c-.24-.35-.43-.74-.63-1.12l.84-.56c.19.38.39.77.63,1.12l-.84.56Zm.84-.56c.28.41.61.79.95,1.15l-.84.56c-.34-.37-.67-.74-.95-1.15l.84-.56Zm.51-2.13l-1.24.82c-.59-1.24-.95-2.61-.95-4.07,0-5.23,4.24-9.46,9.47-9.46s9.47,4.24,9.47,9.46-4.24,9.46-9.47,9.46c-.89,0-1.73-.16-2.54-.39l.57-1.37c.63.16,1.29.28,1.97.28,4.4,0,7.98-3.58,7.98-7.98s-3.58-7.98-7.98-7.98-7.99,3.58-7.99,7.98c0,1.16.26,2.25.71,3.24Zm5.31,4.46l-.57,1.37c-1.59-.44-3.02-1.25-4.15-2.39l1.28-.86c.96.89,2.14,1.54,3.44,1.87Zm-5.21-4.28l-1.23.83c-.03-.06-.07-.12-.1-.18l1.24-.82c.03.06.07.12.1.18Zm1.77,2.4l-1.28.86c-.05-.05-.09-.11-.14-.16l1.25-.83c.05.05.11.09.17.14Zm-2.37-.46c-.24-.35-.44-.73-.63-1.12l1.23-.83c.19.39.39.77.63,1.12l-1.24.83Zm2.2.32l-1.25.83c-.34-.36-.67-.74-.95-1.15l1.24-.83c.29.41.61.79.96,1.14Zm-40.75,108.79l.18-.43c3.44,1.85,5.81,5.44,5.81,9.6,0,6.04-4.91,10.95-10.96,10.95s-10.95-4.91-10.95-10.95c0-4.7,2.99-8.68,7.16-10.23l.11.46c-3.96,1.5-6.79,5.3-6.79,9.78,0,5.78,4.7,10.48,10.48,10.48s10.48-4.7,10.48-10.48c0-3.97-2.25-7.4-5.51-9.17Zm-4.97-1.78c1.87,0,3.61.51,5.15,1.34l-.18.43c-1.49-.81-3.16-1.31-4.97-1.31-.14,0-.27.04-.42.04l-.11-.46c.18,0,.34-.05.52-.05Zm-3.69,1.17l-.11-.46c.11-.04.23-.07.34-.11l.11.46c-.11.04-.23.06-.34.11Zm2.8-1.08c.12,0,.24-.03.36-.04l.11.46c-.12,0-.24.03-.36.04l-.11-.46Zm-1.38.64c-.37.08-.72.22-1.08.34l-.11-.46c.36-.12.71-.25,1.08-.34l.11.46Zm-.11-.46c.48-.11.98-.14,1.49-.19l.11.46c-.5.04-1.01.08-1.49.18l-.11-.46Zm6.2,4.25l.18-.44c2.37,1.39,3.98,3.93,3.98,6.86,0,4.4-3.58,7.98-7.99,7.98s-7.98-3.58-7.98-7.98c0-3.3,2.01-6.13,4.87-7.35l.11.47c-2.65,1.16-4.51,3.8-4.51,6.88,0,4.14,3.37,7.5,7.51,7.5s7.51-3.37,7.51-7.5c0-2.74-1.49-5.12-3.68-6.43Zm-3.55-1.06l-.11-.48c1.4.03,2.7.44,3.84,1.1l-.18.44c-1.05-.63-2.25-1.01-3.55-1.06Zm-3.28.61l-.11-.47c.11-.05.23-.07.34-.11l.11.46c-.11.04-.23.07-.34.12Zm2.91-.63l-.11-.46c.07,0,.13-.02.2-.02.06,0,.11.02.17.02l.11.48c-.1,0-.19-.03-.28-.03-.03,0-.06,0-.09,0Zm-2.68.05c.35-.13.71-.26,1.08-.34l.11.46c-.37.08-.73.2-1.08.34l-.11-.46Zm1.19.12l-.11-.46c.48-.1.98-.15,1.49-.17l.11.46c-.51,0-1.01.06-1.49.16Zm6.16-.9l.39-.94c3.27,1.78,5.51,5.2,5.51,9.17,0,5.78-4.7,10.48-10.48,10.48s-10.48-4.7-10.48-10.48c0-4.48,2.83-8.28,6.79-9.78l.23.98c-3.52,1.38-6.01,4.79-6.01,8.79,0,5.23,4.24,9.46,9.47,9.46s9.47-4.23,9.47-9.46c0-3.56-1.99-6.62-4.89-8.24Zm-4.76-1.21l-.23-.99c.14,0,.27-.04.42-.04,1.81,0,3.48.5,4.97,1.31l-.39.94c-1.36-.76-2.91-1.23-4.58-1.23-.06,0-.12.02-.18.02Zm-3.27.65l-.23-.98c.11-.04.23-.07.34-.11l.23.99c-.11.04-.23.06-.34.11Zm2.68-1.61c.12,0,.24-.03.36-.04l.23.99c-.12,0-.24.03-.36.04l-.24-.99Zm-2.34,1.5l-.23-.99c.36-.12.71-.25,1.08-.34l.23.99c-.37.08-.73.21-1.08.34Zm.85-1.32c.48-.11.98-.14,1.49-.18l.24.99c-.51.03-1.01.07-1.49.18l-.23-.99Zm6.27,3.36l.57-1.38c2.9,1.62,4.89,4.68,4.89,8.24,0,5.23-4.24,9.46-9.47,9.46s-9.47-4.23-9.47-9.46c0-4.01,2.5-7.41,6.01-8.79l.34,1.45c-2.86,1.21-4.87,4.05-4.87,7.35,0,4.4,3.58,7.98,7.98,7.98s7.99-3.58,7.99-7.98c0-2.93-1.61-5.47-3.98-6.86Zm-3.84-1.1l-.35-1.49c.06,0,.12-.02.18-.02,1.67,0,3.22.47,4.58,1.23l-.57,1.38c-1.14-.67-2.44-1.07-3.84-1.1Zm-3.28.61l-.34-1.45c.11-.04.23-.07.34-.11l.34,1.44c-.11.04-.23.06-.34.11Zm2.91-.61l-.34-1.45c.12,0,.24-.03.36-.04l.35,1.49c-.06,0-.11-.02-.17-.02-.07,0-.13.02-.2.02Zm-2.57.5l-.34-1.44c.36-.12.71-.25,1.08-.34l.34,1.44c-.37.08-.73.21-1.08.34Zm.74-1.78c.48-.11.98-.15,1.49-.18l.34,1.45c-.51.01-1.01.06-1.49.17l-.34-1.44Zm-72.38-45.11l.46-.17c.14.7.22,1.43.22,2.18,0,6.04-4.91,10.95-10.96,10.95s-10.95-4.91-10.95-10.95c0-4.77,3.08-8.79,7.35-10.29l.11.46c-4.06,1.45-6.98,5.29-6.98,9.84,0,5.78,4.7,10.48,10.48,10.48s10.48-4.7,10.48-10.48c0-.69-.08-1.35-.2-2Zm-13.78-7.83l-.11-.46c1.14-.4,2.34-.66,3.61-.66,4.09,0,7.61,2.27,9.5,5.6l-.44.17c-1.81-3.15-5.17-5.3-9.05-5.3-1.23,0-2.4.25-3.5.65Zm14.11,7.24c.03.14.1.27.12.42l-.46.17c-.03-.14-.08-.28-.11-.42l.44-.17Zm-1.35-2.2c-.07-.13-.14-.26-.21-.39l.44-.17c.07.13.14.26.21.39l-.44.17Zm1.03,1.2c.12.33.23.66.31,1.01l-.44.17c-.08-.34-.2-.68-.31-1.01l.44-.17Zm-.59-1.37c.23.44.42.89.59,1.37l-.44.17c-.17-.47-.36-.93-.59-1.37l.44-.17Zm-2.29,4.05l.46-.17c.05.36.11.72.11,1.09,0,4.4-3.58,7.98-7.99,7.98s-7.98-3.58-7.98-7.98c0-3.36,2.1-6.23,5.05-7.41l.11.46c-2.74,1.12-4.69,3.81-4.69,6.95,0,4.14,3.37,7.51,7.51,7.51s7.51-3.37,7.51-7.51c0-.31-.05-.61-.09-.92Zm-10.24-6.04l-.11-.46c.91-.36,1.89-.57,2.93-.57,2.82,0,5.29,1.48,6.71,3.69l-.44.17c-1.35-2.04-3.65-3.39-6.27-3.39-1,0-1.95.2-2.82.56Zm10.2,5.59l.45-.17c.03.14.02.3.05.44l-.46.17c-.02-.15-.02-.3-.04-.44Zm-.67-2.93c.08.12.14.26.21.38l-.44.17c-.07-.13-.13-.26-.21-.38l.44-.17Zm.38,1.91l.44-.17c.11.33.23.66.3,1.01l-.45.17c-.07-.35-.17-.69-.29-1.02Zm-.61-1.36l.44-.17c.24.43.45.88.61,1.36l-.44.17c-.16-.48-.36-.93-.61-1.36Zm2.83,2.11l.98-.37c.13.65.2,1.32.2,2,0,5.78-4.7,10.48-10.48,10.48s-10.48-4.7-10.48-10.48c0-4.55,2.92-8.39,6.98-9.84l.23.99c-3.61,1.33-6.2,4.78-6.2,8.85,0,5.23,4.24,9.46,9.47,9.46s9.47-4.24,9.47-9.46c0-.56-.07-1.1-.16-1.63Zm-12.57-7.22l-.23-.99c1.1-.39,2.27-.65,3.5-.65,3.89,0,7.24,2.15,9.05,5.3l-.95.36c-1.65-2.77-4.65-4.64-8.11-4.64-1.15,0-2.25.24-3.27.61Zm12.5,6.78l.94-.36c.03.14.08.28.11.42l-.98.37c-.02-.15-.05-.29-.08-.43Zm-1.12-2.76l.95-.36c.07.13.14.26.21.39l-.95.36c-.07-.13-.14-.26-.21-.39Zm1.75,1.39c.12.33.23.66.31,1.01l-.94.36c-.08-.35-.2-.68-.31-1.01l.94-.36Zm-.59-1.37c.23.44.43.89.59,1.37l-.94.36c-.16-.47-.36-.93-.6-1.36l.95-.36Zm-1.39,3.71l1.43-.54c.09.53.16,1.07.16,1.63,0,5.23-4.24,9.46-9.47,9.46s-9.47-4.24-9.47-9.46c0-4.07,2.59-7.52,6.2-8.85l.34,1.44c-2.95,1.17-5.05,4.04-5.05,7.41,0,4.4,3.58,7.98,7.98,7.98s7.99-3.58,7.99-7.98c0-.37-.06-.73-.11-1.09Zm-10.8-6.32l-.34-1.44c1.02-.38,2.12-.61,3.27-.61,3.46,0,6.45,1.87,8.11,4.64l-1.4.53c-1.42-2.21-3.89-3.69-6.71-3.69-1.04,0-2.02.21-2.93.57Zm10.76,5.87l1.4-.53c.03.14.05.29.08.43l-1.43.54c-.02-.15-.02-.3-.05-.44Zm-1.12-2.76l1.4-.53c.07.13.14.26.21.39l-1.4.53c-.07-.13-.13-.26-.21-.38Zm.82,1.74l1.39-.53c.11.33.24.66.31,1.01l-1.4.53c-.07-.35-.19-.68-.3-1.01Zm.79-1.89c.23.44.43.89.6,1.36l-1.39.53c-.16-.48-.37-.93-.61-1.36l1.4-.53ZM51.6,62c0,2.97,1.2,5.66,3.12,7.63-2.19-2-3.59-4.86-3.59-8.05,0-6.04,4.91-10.95,10.96-10.95,3.85,0,7.23,2.01,9.19,5.03-1.98-2.75-5.17-4.56-8.8-4.56-5.99,0-10.87,4.89-10.87,10.91Zm10.81,7.52l.1.41s-.02,0-.03,0c-2.21,0-4.21-.93-5.65-2.41,1.41,1.24,3.24,2.02,5.26,2.02.11,0,.21-.03.32-.03Zm7.66-7.94c0-1.57-.47-3.03-1.26-4.26.97,1.32,1.56,2.93,1.56,4.69,0,1.01-.21,1.97-.55,2.86l-.36-.24c.39-.94.61-1.97.61-3.05Zm-2.4,5.68l.44.29c-1.43,1.46-3.41,2.38-5.6,2.39l-.1-.41c2.04-.08,3.89-.92,5.26-2.26Zm1.78-2.63l.36.24c-.03.07-.04.14-.06.2l-.39-.26c.03-.06.06-.12.09-.19Zm-1.22,2.76c-.05.05-.08.11-.13.16l-.44-.29s.09-.1.14-.15l.42.28Zm1.13-2.57l.39.26c-.17.4-.38.77-.61,1.13l-.39-.26c.24-.36.44-.74.61-1.13Zm-.61,1.13l.39.26c-.27.42-.57.82-.91,1.18l-.42-.28c.35-.36.66-.75.94-1.17Zm4.29-4.37c0-2.18-.66-4.21-1.77-5.92,1.29,1.79,2.07,3.97,2.07,6.35,0,1.61-.37,3.13-1,4.51l-.39-.26c.68-1.43,1.09-3,1.09-4.68Zm-9.95,10.85l.1.41c-.24.02-.47.07-.72.07-3.03,0-5.77-1.26-7.75-3.28,1.95,1.78,4.52,2.89,7.36,2.89.34,0,.67-.07,1-.1Zm72.77,55.25c.71.7,1.48,1.33,2.31,1.88l-65.85,75.93c-.65-.75-1.38-1.44-2.22-1.99l65.75-75.81Zm-65.27-58.49c-1.84,2.09-4.45,3.46-7.4,3.65l-.1-.41c2.8-.26,5.29-1.55,7.08-3.52l.42.28Zm1.35-2.92l.39.26c-.03.06-.07.12-.1.19l-.39-.26c.03-.06.07-.12.1-.19Zm-1.22,2.76c-.05.05-.09.11-.13.16l-.42-.28c.05-.05.09-.11.13-.16l.42.28Zm.51-1.45c.23-.36.42-.74.61-1.12l.39.26c-.19.39-.38.76-.61,1.12l-.39-.26Zm.39.26c-.27.42-.58.81-.9,1.19l-.42-.28c.33-.38.66-.75.93-1.17l.39.26Zm-17.05-5.82c0,2.15.86,4.1,2.25,5.53-1.66-1.46-2.72-3.58-2.72-5.95,0-4.4,3.58-7.98,7.99-7.98,2.83,0,5.31,1.49,6.72,3.72-1.44-1.96-3.73-3.25-6.34-3.25-4.35,0-7.9,3.56-7.9,7.94Zm7.51,10.52c-2.84,0-5.41-1.11-7.36-2.89-1.93-1.97-3.12-4.66-3.12-7.63,0-6.01,4.88-10.91,10.87-10.91,3.63,0,6.83,1.81,8.8,4.56,1.11,1.71,1.77,3.74,1.77,5.92,0,1.68-.41,3.26-1.09,4.68l-1.24-.81c.53-1.18.85-2.49.85-3.87,0-5.23-4.24-9.46-9.47-9.46s-9.47,4.24-9.47,9.46,4.24,9.46,9.47,9.46c.23,0,.44-.05.67-.07l.34,1.45c-.34.03-.66.1-1,.1Zm6.84-4.44l1.24.81c-1.79,1.97-4.28,3.26-7.08,3.52l-.34-1.45c2.43-.17,4.6-1.23,6.18-2.89Zm1.68-2.45c.03-.06.07-.12.1-.18l1.24.81c-.03.06-.07.12-.1.19l-1.24-.81Zm-.31,3.11c-.05.05-.09.11-.13.16l-1.24-.81c.05-.05.09-.11.13-.16l1.24.81Zm.31-3.11l1.24.81c-.19.38-.38.77-.61,1.12l-1.24-.81c.23-.36.43-.74.61-1.13Zm.63,1.94c-.28.42-.6.79-.93,1.17l-1.24-.81c.34-.37.66-.75.93-1.17l1.24.81Zm-8.73,2.36l.24,1.04c-.22.02-.44.07-.67.07-5.23,0-9.47-4.24-9.47-9.46s4.24-9.46,9.47-9.46,9.47,4.24,9.47,9.46c0,1.38-.31,2.69-.85,3.87l-.89-.58c.35-.89.55-1.85.55-2.86,0-1.76-.59-3.37-1.56-4.69-1.42-2.23-3.89-3.72-6.72-3.72-4.4,0-7.99,3.58-7.99,7.98,0,2.38,1.07,4.49,2.72,5.95,1.44,1.48,3.43,2.41,5.65,2.41.01,0,.02,0,.03,0Zm6.42-1.84c-1.58,1.66-3.75,2.71-6.18,2.89l-.24-1.04c2.19,0,4.17-.92,5.6-2.39l.82.54Zm.89-3.22l.89.58c-.03.06-.07.12-.1.18l-.85-.56c.03-.07.04-.14.06-.2Zm-1.58,2.52l.82.54c-.05.05-.08.11-.13.16l-.82-.54s.08-.11.13-.16Zm.91-1.18c.23-.36.44-.73.61-1.13l.85.56c-.19.39-.38.77-.61,1.13l-.85-.56Zm.85.56c-.27.42-.6.8-.93,1.17l-.82-.54c.34-.37.64-.76.91-1.18l.85.56Zm2.01,139.08l.31-.36c1.67,1.92,2.72,4.4,2.72,7.14,0,6.04-4.91,10.95-10.95,10.95s-10.96-4.91-10.96-10.95,4.91-10.95,10.96-10.95c2.22,0,4.29.67,6.02,1.82l-.31.36c-1.64-1.07-3.6-1.71-5.71-1.71-5.78,0-10.48,4.7-10.48,10.48s4.7,10.48,10.48,10.48,10.48-4.7,10.48-10.48c0-2.6-.98-4.95-2.56-6.78Zm-1.9-2.35c.84.55,1.56,1.24,2.22,1.99l-.31.36c-.65-.76-1.38-1.44-2.22-1.99l.31-.36Zm-6.02,1.15c1.48,0,2.85.43,4.04,1.14l-.31.36c-1.1-.64-2.36-1.03-3.72-1.03-4.14,0-7.51,3.37-7.51,7.51s3.37,7.5,7.51,7.5,7.51-3.37,7.51-7.5c0-1.7-.59-3.26-1.55-4.52l.31-.36c1.05,1.35,1.71,3.03,1.71,4.87,0,4.4-3.58,7.98-7.98,7.98s-7.99-3.58-7.99-7.98,3.58-7.98,7.99-7.98Zm3.72,1.5l.31-.36c.87.51,1.62,1.18,2.23,1.97l-.31.36c-.61-.8-1.36-1.46-2.24-1.97Zm-3.72-4c2.11,0,4.06.64,5.71,1.71l-.68.78c-1.46-.92-3.18-1.47-5.03-1.47-5.23,0-9.47,4.24-9.47,9.46s4.24,9.46,9.47,9.46,9.47-4.23,9.47-9.46c0-2.3-.85-4.37-2.21-6.01l.67-.77c1.57,1.83,2.56,4.18,2.56,6.78,0,5.78-4.7,10.48-10.48,10.48s-10.48-4.7-10.48-10.48,4.7-10.48,10.48-10.48Zm5.03,2.49l.68-.78c.84.55,1.57,1.23,2.22,1.99l-.67.77c-.64-.77-1.38-1.44-2.23-1.98Zm1.24,3.11l.98-1.14c1.36,1.64,2.21,3.71,2.21,6.01,0,5.23-4.24,9.46-9.47,9.46s-9.47-4.23-9.47-9.46,4.24-9.46,9.47-9.46c1.85,0,3.57.55,5.03,1.47l-.99,1.15c-1.19-.7-2.56-1.14-4.04-1.14-4.4,0-7.99,3.58-7.99,7.98s3.58,7.98,7.99,7.98,7.98-3.58,7.98-7.98c0-1.84-.65-3.52-1.71-4.87Zm-1.24-3.11c.85.54,1.59,1.21,2.23,1.98l-.98,1.14c-.62-.79-1.37-1.46-2.23-1.97l.99-1.15Zm67.05-77.31l-.31.35c-1.27-1.25-2.29-2.73-3.08-4.36l.44-.17c.76,1.55,1.73,2.97,2.94,4.17Zm-1.34-19.91l-.4-.26c2.85-3.73,7.3-6.18,12.35-6.18s9.2,2.3,12.06,5.83l-.39.26c-2.78-3.4-6.94-5.62-11.67-5.62s-9.19,2.37-11.95,5.97Zm14.2,24.06l.11.46c-.77.12-1.55.24-2.35.24-3.18,0-6.14-.97-8.61-2.61l.31-.36c2.38,1.57,5.23,2.5,8.29,2.5.77,0,1.51-.12,2.25-.23Zm-16.98-11.59l-.44.17c-.26-1.12-.42-2.28-.42-3.48,0-2.35.56-4.56,1.5-6.56l.39.26c-.89,1.93-1.42,4.05-1.42,6.3,0,1.14.15,2.24.39,3.3Zm2.15-12.43c.07-.1.16-.19.24-.29l.4.26c-.08.1-.16.19-.24.29l-.4-.26Zm-.97,15.71l-.44.17c-.07-.15-.17-.29-.24-.45l.44-.17c.07.16.17.3.24.45Zm-1.47-2.62c-.04-.17-.11-.32-.15-.49l.44-.17c.04.17.11.32.15.49l-.44.17Zm1.32-10.26l-.39-.26c.05-.11.12-.22.18-.33l.4.26c-.06.11-.13.22-.18.33Zm.5-1.9c.2-.32.4-.63.62-.93l.4.26c-.22.3-.42.61-.62.93l-.4-.26Zm-.93,13.42c.11.31.21.62.34.92l-.44.17c-.13-.3-.23-.61-.34-.92l.44-.17Zm1.33-13.16c-.26.42-.49.86-.71,1.31l-.4-.26c.22-.45.45-.89.71-1.31l.4.26Zm-1.77,11.74c.13.48.27.96.44,1.42l-.44.17c-.17-.46-.31-.94-.44-1.42l.44-.17Zm28.09-10.46l.39-.26c1.05,2.1,1.69,4.42,1.69,6.92,0,6.6-4.13,12.22-9.93,14.49l-.11-.45c5.59-2.22,9.57-7.66,9.57-14.04,0-2.4-.61-4.65-1.61-6.66Zm-10.71,21.97c-.14.03-.3.02-.44.04l-.11-.46c.15-.02.3-.02.44-.04l.11.46Zm8.87-24.82l.39-.26c.09.11.18.21.26.32l-.39.26c-.08-.11-.18-.21-.26-.32Zm-6.11,23.54l.11.45c-.14.05-.29.08-.43.13l-.11-.45c.14-.05.29-.08.43-.13Zm8.15-21.33c.07.12.14.24.2.36l-.39.26c-.06-.12-.13-.24-.2-.36l.39-.26Zm-9.89,22.36c-.34.09-.67.18-1.02.24l-.11-.46c.35-.06.68-.16,1.02-.24l.11.45Zm8.79-23.41c-.2-.3-.45-.56-.67-.85l.39-.26c.22.29.47.55.67.85l-.39.26Zm.39-.26c.27.41.48.87.71,1.31l-.39.26c-.23-.44-.44-.9-.71-1.31l.39-.26Zm-9.28,23.21c.49-.12.96-.27,1.42-.44l.11.45c-.47.17-.94.32-1.42.44l-.11-.45Zm-12-1.99l-.31.36c-.83-.55-1.6-1.18-2.31-1.88l.31-.35c.71.7,1.49,1.32,2.32,1.87Zm9.85-.63l.11.46c-.55.07-1.1.17-1.67.17-2.44,0-4.69-.73-6.62-1.93l.31-.36c1.84,1.13,3.99,1.82,6.31,1.82.53,0,1.04-.09,1.56-.16Zm-11.02-19.52l-.4-.26c2.31-2.92,5.85-4.84,9.86-4.84s7.27,1.78,9.59,4.51l-.39.26c-2.23-2.61-5.5-4.3-9.19-4.3s-7.24,1.83-9.46,4.63Zm.81,16.03l-.31.36c-.91-.92-1.64-2.01-2.23-3.17l.44-.17c.56,1.09,1.25,2.11,2.1,2.98Zm-3.49-8.5c0,.76.09,1.5.23,2.23l-.45.17c-.15-.78-.24-1.58-.24-2.41,0-1.75.36-3.41,1-4.93l.41.27c-.6,1.44-.94,3.01-.94,4.67Zm2.45-7.24l-.4-.26c.08-.1.16-.19.24-.29l.4.26c-.08.1-.17.19-.24.29Zm-1.06,12.76l-.44.17c-.08-.15-.17-.3-.25-.45l.44-.17c.07.16.17.3.25.45Zm-.86-10.45c.05-.12.13-.22.18-.33l.4.26c-.05.12-.12.22-.17.34l-.41-.27Zm-.19,7.67l-.44.17c-.04-.17-.09-.33-.13-.5l.45-.17c.03.17.07.34.11.51Zm1.48-9.06l-.4-.26c.2-.32.4-.62.62-.92l.4.26c-.22.3-.43.6-.62.92Zm-.68,11.38l-.44.17c-.14-.29-.25-.6-.36-.91l.44-.17c.11.31.22.61.36.9Zm-.03-10.07l-.4-.26c.21-.45.45-.89.71-1.31l.4.26c-.26.42-.51.86-.71,1.31Zm-.33,9.17l-.44.17c-.17-.46-.33-.94-.44-1.42l.44-.17c.11.49.27.96.44,1.42Zm22.41-9.17l.39-.26c.74,1.61,1.19,3.38,1.19,5.27,0,5.19-3.15,9.66-7.64,11.59l-.11-.47c4.28-1.88,7.29-6.15,7.29-11.12,0-1.79-.41-3.48-1.11-5.01Zm-1.85-2.85l.39-.26c.09.11.18.21.27.32l-.39.26c-.09-.11-.18-.22-.27-.33Zm-7.19,19.81l.11.46c-.15.02-.3.03-.45.05l-.11-.46c.15-.02.3-.02.45-.05Zm2.97-.36c-.14.06-.29.09-.43.15l-.11-.46c.14-.06.28-.1.42-.16l.11.47Zm5.86-16.97l.39-.26c.06.13.14.24.2.37l-.39.26c-.06-.13-.14-.25-.2-.37Zm-1.38-2.15l.39-.26c.22.28.47.54.67.84l-.39.26c-.2-.3-.44-.56-.67-.84Zm-6.44,19.26l.11.46c-.34.09-.67.17-1.02.23l-.11-.46c.35-.06.68-.14,1.02-.22Zm7.11-18.42l.39-.26c.27.41.49.87.71,1.31l-.39.26c-.22-.45-.44-.9-.71-1.31Zm-5.68,17.98l.11.46c-.46.18-.94.32-1.42.44l-.11-.46c.48-.13.96-.26,1.42-.44Zm-10.75-.95l-.31.36c-.85-.53-1.65-1.13-2.35-1.84l.31-.36c.7.71,1.5,1.31,2.35,1.83Zm-4.8-18.94l-.84-.55c2.77-3.6,7.07-5.97,11.95-5.97s8.89,2.22,11.67,5.62l-.84.56c-2.59-3.13-6.45-5.17-10.83-5.17s-8.53,2.18-11.11,5.51Zm13.12,22.51l.24.99c-.74.11-1.48.23-2.25.23-3.06,0-5.91-.93-8.29-2.5l.68-.78c2.2,1.42,4.8,2.26,7.62,2.26.69,0,1.35-.11,2.01-.2Zm-11.96-3.91l-.66.76c-1.21-1.2-2.19-2.62-2.94-4.17l.95-.36c.69,1.39,1.56,2.69,2.65,3.77Zm-3.84-7.05l-.94.36c-.24-1.07-.39-2.17-.39-3.3,0-2.26.53-4.38,1.42-6.3l.84.55c-.79,1.76-1.25,3.7-1.25,5.75,0,1.01.12,1.99.32,2.95Zm1.19,3.28l-.95.36c-.08-.15-.17-.29-.24-.45l.95-.36c.07.16.17.3.24.45Zm1.25-14.54l-.84-.55c.07-.1.16-.19.24-.29l.84.55c-.08.1-.16.19-.24.29Zm-1.51,2.57l-.84-.55c.05-.11.12-.22.18-.33l.84.55c-.05.11-.13.22-.18.33Zm-.78,9.18l-.94.36c-.04-.17-.11-.32-.15-.49l.94-.36c.04.17.11.32.15.49Zm.79,2.34l-.95.36c-.13-.3-.23-.61-.34-.92l.94-.36c.11.31.21.62.35.91Zm.04-13.71c.2-.32.4-.63.62-.93l.84.55c-.22.3-.42.61-.62.92l-.84-.55Zm.13,1.86l-.84-.55c.22-.45.45-.89.71-1.31l.84.55c-.26.42-.49.86-.71,1.31Zm-.96,9.52c.12.49.27.96.44,1.42l-.94.36c-.17-.46-.32-.94-.44-1.42l.94-.36Zm26.31-9.53l.84-.56c1,2.02,1.61,4.26,1.61,6.66,0,6.38-3.98,11.82-9.57,14.04l-.23-.99c5.15-2.1,8.79-7.15,8.79-13.05,0-2.19-.54-4.25-1.44-6.1Zm-10.22,19.96l.23.99c-.14.03-.3.02-.44.04l-.24-.99c.15-.02.3-.02.44-.04Zm8.37-22.81l.84-.56c.09.11.18.21.26.32l-.84.56c-.09-.11-.18-.21-.26-.32Zm-5.51,22l.23.99c-.14.05-.29.08-.43.13l-.23-.99c.14-.05.29-.08.43-.13Zm7.15-19.52l.84-.56c.07.12.14.24.2.36l-.84.56c-.06-.13-.14-.24-.2-.37Zm-1.38-2.16l.84-.56c.22.29.47.55.67.85l-.84.56c-.2-.3-.45-.56-.67-.85Zm-7.39,23.24c-.34.09-.67.18-1.02.24l-.23-.99c.35-.06.68-.15,1.02-.23l.23.99Zm1.19-1.43l.23.99c-.46.17-.94.32-1.42.44l-.23-.99c.48-.12.96-.27,1.42-.44Zm7.7-21.52c.27.41.48.87.71,1.31l-.84.56c-.23-.44-.44-.9-.71-1.31l.84-.56Zm-20.22,20.19l-.68.78c-.83-.55-1.61-1.17-2.32-1.87l.66-.76c.7.7,1.5,1.31,2.34,1.85Zm-2.24-19.63l-1.25-.82c2.58-3.33,6.57-5.51,11.11-5.51s8.24,2.04,10.83,5.17l-1.24.83c-2.32-2.73-5.73-4.51-9.59-4.51s-7.55,1.92-9.86,4.84Zm.89,16.65l-.98,1.13c-1.09-1.09-1.96-2.38-2.65-3.77l1.4-.53c.6,1.16,1.32,2.25,2.23,3.17Zm10.64,3.59l.34,1.45c-.66.1-1.32.2-2.01.2-2.81,0-5.42-.84-7.62-2.26l1-1.15c1.93,1.2,4.19,1.93,6.62,1.93.57,0,1.11-.09,1.67-.17Zm-14.05-10.05l-1.41.54c-.2-.95-.32-1.93-.32-2.95,0-2.05.46-3.99,1.25-5.75l1.24.82c-.65,1.52-1,3.18-1,4.93,0,.82.09,1.63.24,2.41Zm2.28-9.9l-1.25-.82c.07-.1.16-.19.24-.29l1.25.82c-.08.1-.17.19-.24.29Zm-1.1,13.19l-1.4.53c-.08-.15-.17-.29-.24-.45l1.4-.53c.07.16.17.3.25.45Zm-1.18-3.28c.03.17.09.33.13.5l-1.39.53c-.04-.17-.12-.32-.15-.49l1.41-.54Zm.76-7.34l-1.24-.82c.05-.12.13-.22.18-.33l1.25.82c-.05.12-.13.22-.18.33Zm.89-1.65l-1.25-.82c.2-.32.4-.62.62-.92l1.25.82c-.22.3-.43.6-.62.92Zm-.73,11.81l-1.4.53c-.13-.3-.24-.6-.35-.91l1.39-.53c.11.31.22.61.36.91Zm-.36-.91l-1.39.53c-.17-.46-.32-.94-.44-1.42l1.39-.53c.12.49.27.96.44,1.42Zm-.87-10.41c.22-.45.45-.89.71-1.31l1.25.82c-.26.42-.5.86-.71,1.31l-1.25-.82Zm24.12.81l1.24-.83c.89,1.85,1.44,3.9,1.44,6.1,0,5.9-3.64,10.95-8.79,13.05l-.34-1.46c4.49-1.94,7.64-6.4,7.64-11.59,0-1.89-.44-3.66-1.19-5.27Zm-1.85-2.85l1.24-.83c.09.11.18.21.26.32l-1.24.83c-.09-.11-.18-.22-.27-.32Zm-7.47,20.53l.34,1.45c-.15.03-.3.02-.44.04l-.34-1.45c.15-.02.3-.02.45-.05Zm2.87-.82l.34,1.46c-.14.06-.29.08-.43.13l-.34-1.44c.14-.05.29-.09.43-.15Zm6.25-17.23l1.24-.83c.06.12.14.24.2.37l-1.24.83c-.06-.13-.14-.25-.2-.37Zm-8.1,17.82l.34,1.44c-.34.09-.67.17-1.02.23l-.34-1.45c.35-.06.68-.14,1.02-.23Zm6.73-19.98l1.24-.83c.22.28.47.55.67.85l-1.24.83c-.2-.3-.44-.56-.67-.84Zm.67.84l1.24-.83c.27.41.48.87.71,1.31l-1.24.83c-.23-.45-.44-.9-.71-1.31Zm-5.62,20.14c-.46.17-.94.32-1.42.44l-.34-1.44c.48-.12.96-.26,1.42-.44l.34,1.44Zm-11.52-2.49l-1,1.15c-.84-.54-1.63-1.15-2.34-1.85l.98-1.13c.7.71,1.5,1.31,2.35,1.84Z"/></svg>