<?xml version="1.0" encoding="UTF-8"?><svg id="Vrstva_1" xmlns="http://www.w3.org/2000/svg" viewBox="0 0 331.24 363.41"><defs><style>.cls-1{stroke-width:0px;}</style></defs><path class="cls-1" d="m164.31,94.17c-48.74,0-88.4,39.66-88.4,88.41s39.66,88.4,88.4,88.4,88.4-39.66,88.4-88.4-39.66-88.41-88.4-88.41Zm54.92,73.24l-.03-.33.32.07c19.12,4,30.55,9.77,30.55,15.42s-11.42,11.42-30.55,15.41l-.32.07.03-.33c.56-5.08.84-10.18.84-15.15s-.28-10.08-.84-15.16Zm30.23,8.89l-.54-.48c-5.37-4.73-15.71-8.77-29.92-11.66l-.17-.03-.02-.17c-1.17-8.64-3.16-16.94-5.92-24.66l-.18-.52.51.22c19.8,8.54,32.95,21.88,36.09,36.6l.15.71Zm-66.1-45.17l-.06-.33.33.05c9.12,1.31,17.77,3.52,25.71,6.56l.1.04.04.1c3.05,7.96,5.26,16.62,6.56,25.71l.05.33-.33-.06c-8.57-1.58-18.26-2.71-28.81-3.37h-.21s-.01-.22-.01-.22c-.66-10.57-1.8-20.26-3.37-28.81Zm1.4,51.45c0,6.57-.19,13.17-.56,19.65v.21s-.23.01-.23.01c-6.47.37-13.08.56-19.65.56s-13.18-.19-19.65-.56h-.22s-.01-.23-.01-.23c-.37-6.47-.56-13.08-.56-19.65s.19-13.18.56-19.65v-.21s.23-.01.23-.01c12.8-.75,26.52-.75,39.3,0h.22s.01.23.01.23c.37,6.47.56,13.09.56,19.65Zm-.76-22.86l.02.27h-.27c-6.17-.34-12.71-.51-19.43-.51s-13.25.17-19.42.49h-.27s.02-.26.02-.26c.72-10.51,1.94-20.31,3.61-29.12l.03-.17.17-.02c5.3-.61,10.63-.92,15.86-.92s10.56.31,15.86.92l.17.02.03.17c1.67,8.81,2.89,18.61,3.61,29.12Zm-38.73-28.59c-1.58,8.58-2.71,18.27-3.37,28.81v.21s-.22.01-.22.01c-10.56.66-20.25,1.8-28.8,3.37l-.33.06.05-.33c1.3-9.11,3.51-17.77,6.56-25.71l.04-.1.1-.04c7.94-3.05,16.59-5.25,25.71-6.56l.33-.05-.06.33Zm-3.81,31.77l.27-.02v.27c-.34,6.34-.51,12.87-.51,19.43s.17,13.09.49,19.42v.27s-.26-.02-.26-.02c-10.51-.72-20.31-1.94-29.12-3.61l-.17-.03-.02-.18c-.61-5.26-.93-10.59-.93-15.85s.31-10.6.93-15.85l.02-.18.17-.03c8.79-1.67,18.59-2.89,29.12-3.61Zm-28.58,38.72c8.55,1.58,18.24,2.71,28.8,3.37h.21s.01.22.01.22c.66,10.54,1.79,20.23,3.37,28.8l.06.33-.33-.05c-9.11-1.3-17.76-3.51-25.71-6.56l-.1-.04-.04-.1c-3.05-7.95-5.26-16.6-6.56-25.71l-.05-.33.33.06Zm31.77,3.81l-.02-.27h.27c12.61.67,26.24.67,38.85.01h.27s-.02.26-.02.26c-.73,10.52-1.94,20.32-3.61,29.12l-.03.17-.17.02c-5.3.61-10.63.92-15.86.92s-10.56-.31-15.86-.92l-.17-.02-.03-.17c-1.67-8.82-2.89-18.62-3.61-29.12Zm38.72,28.58c1.57-8.54,2.71-18.23,3.37-28.8v-.21s.22-.01.22-.01c10.55-.66,20.24-1.8,28.81-3.37l.33-.06-.05.33c-1.3,9.1-3.51,17.75-6.56,25.71l-.04.1-.1.04c-7.95,3.05-16.61,5.25-25.71,6.56l-.33.05.06-.33Zm3.81-31.77l-.27.02v-.27c.34-6.25.51-12.79.51-19.42s-.17-13.17-.49-19.43v-.27s.26.02.26.02c10.53.72,20.33,1.94,29.12,3.61l.17.03.02.18c.61,5.29.93,10.63.93,15.85s-.31,10.56-.93,15.85l-.02.18-.17.03c-8.81,1.67-18.61,2.89-29.12,3.61Zm-3.72-103.25c31.85,7.29,57.14,32.58,64.43,64.43l.36,1.56-.8-1.39c-6.64-11.52-19.39-21.51-35.9-28.12l-.09-.04-.04-.1c-6.62-16.52-16.61-29.27-28.13-35.9l-1.39-.8,1.56.36Zm-12.16-1.42c14.73,3.14,28.06,16.29,36.6,36.08l.22.51-.52-.18c-7.73-2.75-16.03-4.74-24.66-5.92l-.17-.02-.04-.17c-2.89-14.2-6.93-24.54-11.66-29.9l-.48-.55.71.15Zm-6.98-.76c5.65,0,11.42,11.42,15.42,30.54l.07.32-.33-.04c-5.08-.55-10.18-.83-15.16-.83s-10.08.28-15.16.83l-.33.04.07-.32c4-19.12,9.76-30.54,15.42-30.54Zm-6.27.61l-.48.55c-4.74,5.36-8.77,15.7-11.66,29.9l-.04.17-.17.02c-8.63,1.17-16.93,3.16-24.67,5.92l-.52.18.22-.51c8.54-19.8,21.88-32.95,36.61-36.08l.71-.15Zm-77.3,66c7.29-31.85,32.58-57.14,64.43-64.43l1.56-.36-1.39.8c-11.53,6.64-21.51,19.39-28.13,35.9l-.04.1-.1.04c-16.52,6.62-29.27,16.6-35.91,28.12l-.8,1.39.36-1.56Zm-1.42,12.16c3.14-14.73,16.29-28.07,36.09-36.6l.51-.22-.18.52c-2.76,7.75-4.75,16.05-5.92,24.66l-.02.17-.17.03c-13.99,2.85-24.62,7-29.91,11.66l-.54.48.15-.71Zm29.79-8.44l.32-.07-.03.33c-.56,5.11-.84,10.21-.84,15.16s.28,10.05.84,15.15l.03.33-.32-.07c-19.13-4-30.55-9.76-30.55-15.41s11.42-11.42,30.55-15.42Zm-29.94,21.69l.54.48c5.37,4.74,15.7,8.77,29.91,11.67l.17.03.02.17c1.17,8.62,3.16,16.92,5.92,24.67l.18.52-.51-.22c-19.79-8.54-32.94-21.88-36.09-36.61l-.15-.71Zm66,77.3c-31.85-7.29-57.14-32.58-64.43-64.43l-.36-1.56.8,1.39c6.63,11.52,19.39,21.51,35.91,28.13l.1.04.04.1c6.61,16.52,16.6,29.27,28.13,35.9l1.39.8-1.56-.36Zm12.16,1.42c-14.72-3.13-28.06-16.29-36.61-36.08l-.22-.51.52.18c7.74,2.76,16.04,4.75,24.67,5.92l.17.02.04.17c2.89,14.2,6.93,24.54,11.66,29.9l.48.55-.71-.15Zm6.98.76c-5.66,0-11.42-11.42-15.42-30.55l-.07-.32.33.04c5.09.56,10.19.84,15.16.84s10.06-.28,15.16-.84l.33-.04-.07.32c-4,19.13-9.77,30.55-15.42,30.55Zm6.27-.61l.48-.55c4.74-5.36,8.77-15.7,11.66-29.9l.04-.17.17-.02c8.64-1.17,16.93-3.16,24.66-5.92l.52-.18-.22.51c-8.54,19.8-21.88,32.95-36.6,36.08l-.71.15Zm77.3-66c-7.29,31.85-32.58,57.14-64.43,64.43l-1.56.36,1.39-.8c11.52-6.63,21.51-19.38,28.13-35.9l.04-.1.09-.04c16.52-6.62,29.27-16.61,35.9-28.12l.8-1.39-.36,1.56Zm1.42-12.16c-3.14,14.72-16.29,28.07-36.09,36.61l-.51.22.18-.52c2.76-7.73,4.75-16.03,5.92-24.66l.02-.17.17-.03c14.21-2.9,24.55-6.93,29.92-11.67l.54-.48-.15.71ZM50.26,93.84c-7.32,9.52-13.41,19.9-18.1,30.87l-2.85-1.22c4.81-11.22,11.03-21.83,18.5-31.54l2.45,1.9Zm26.26-26.28l-1.9-2.44c9.7-7.47,20.31-13.69,31.54-18.5l1.22,2.84c-10.98,4.71-21.36,10.8-30.86,18.11Zm-44.35,170.55c4.7,10.98,10.79,21.36,18.11,30.86l-2.45,1.89c-7.47-9.7-13.69-20.31-18.51-31.53l2.85-1.22Zm42.49,59.57l1.89-2.45c9.5,7.3,19.88,13.39,30.87,18.11l-1.22,2.84c-11.24-4.81-21.85-11.04-31.54-18.5Zm203.3-28.74c7.31-9.5,13.4-19.88,18.1-30.86l2.85,1.22c-4.81,11.24-11.04,21.85-18.5,31.55l-2.45-1.9Zm-57.12,44.39c10.99-4.71,21.37-10.8,30.85-18.11l1.9,2.44c-9.7,7.47-20.31,13.69-31.54,18.51l-1.22-2.85Zm32.72-248.23l-1.89,2.45c-9.49-7.3-19.88-13.39-30.87-18.1l1.22-2.84c11.23,4.81,21.84,11.03,31.55,18.5Zm42.48,59.57c-4.71-10.99-10.79-21.37-18.1-30.86l2.45-1.9c7.47,9.7,13.69,20.31,18.5,31.53l-2.85,1.22ZM164,34.76c9.59,0,17.38-7.8,17.38-17.38S173.58,0,164,0s-17.38,7.79-17.38,17.38,7.8,17.38,17.38,17.38Zm-14.62-17.38c0-.87.11-1.71.26-2.54,1.21-6.85,7.17-12.08,14.37-12.08s13.16,5.23,14.37,12.08c.15.83.26,1.67.26,2.54,0,.09-.02.17-.03.26-.14,7.95-6.62,14.37-14.6,14.37s-14.46-6.43-14.6-14.37c0-.09-.03-.17-.03-.26ZM27.34,174.7c9.59,0,17.38-7.79,17.38-17.38s-7.79-17.38-17.38-17.38-17.38,7.79-17.38,17.38,7.8,17.38,17.38,17.38Zm-14.62-17.38c0-.87.11-1.71.26-2.54,1.21-6.85,7.17-12.08,14.37-12.08s13.16,5.23,14.37,12.08c.15.83.26,1.67.26,2.54,0,.09-.02.17-.03.26-.14,7.95-6.62,14.37-14.6,14.37s-14.46-6.43-14.6-14.37c0-.09-.03-.17-.03-.26Zm275.81,0c0,9.59,7.8,17.38,17.38,17.38s17.38-7.79,17.38-17.38-7.79-17.38-17.38-17.38-17.38,7.79-17.38,17.38Zm17.38-14.62c7.2,0,13.16,5.23,14.37,12.08.15.83.26,1.67.26,2.54,0,.09-.02.17-.03.26-.14,7.95-6.62,14.37-14.6,14.37s-14.46-6.43-14.6-14.37c0-.09-.03-.17-.03-.26,0-.87.11-1.71.26-2.54,1.21-6.85,7.17-12.08,14.37-12.08Zm-9.5,35.21c-9.71,0-17.61,7.88-17.61,17.57v17.57h53.44v-17.57c0-9.69-7.89-17.57-17.6-17.57h-18.24Zm32.87,17.57v14.59h-47.5v-14.59c0-8.05,6.57-14.59,14.63-14.59h18.24c8.06,0,14.63,6.54,14.63,14.59Zm-274.82,0c0-9.69-7.89-17.57-17.6-17.57h-18.24c-9.71,0-17.61,7.88-17.61,17.57v17.57h53.44v-17.57Zm-2.97,14.59H3.97v-14.59c0-8.05,6.57-14.59,14.63-14.59h18.24c8.06,0,14.63,6.54,14.63,14.59v14.59ZM190.72,56.27c0-9.69-7.89-17.57-17.6-17.57h-18.24c-9.71,0-17.61,7.88-17.61,17.57v17.57h53.44v-17.57Zm-2.97,14.59h-47.5v-14.59c0-8.05,6.57-14.59,14.63-14.59h18.24c8.06,0,14.63,6.54,14.63,14.59v14.59Zm-14.77,258.15h-17.96c-9.57,0-17.36,7.72-17.36,17.2v17.2h52.68v-17.2c0-9.48-7.79-17.2-17.36-17.2Zm16.32,33.36h-50.61v-16.17c0-8.92,7.24-16.16,16.16-16.16h18.29c8.92,0,16.16,7.24,16.16,16.16v16.17Zm-16.16-32.33h-18.29c-8.93,0-16.16,7.24-16.16,16.16v16.17h50.61v-16.17c0-8.92-7.23-16.16-16.16-16.16Zm14.23,30.39h-46.74v-14.23c0-7.84,6.46-14.22,14.39-14.22h17.96c7.93,0,14.39,6.38,14.39,14.22v14.23Zm-40.75-52.75c0,9.59,7.8,17.38,17.38,17.38s17.38-7.79,17.38-17.38-7.79-17.38-17.38-17.38-17.38,7.79-17.38,17.38Zm31.75-2.54c.15.83.26,1.67.26,2.54,0,.09-.02.17-.03.26-.14,7.95-6.62,14.37-14.6,14.37s-14.46-6.43-14.6-14.37c0-.09-.03-.17-.03-.26,0-.87.11-1.71.26-2.54,1.21-6.85,7.17-12.08,14.37-12.08s13.16,5.23,14.37,12.08Z"/></svg>