<?xml version="1.0" encoding="UTF-8"?><svg id="Vrstva_1" xmlns="http://www.w3.org/2000/svg" viewBox="0 0 218.45 264.35"><defs><style>.cls-1{stroke-width:0px;}</style></defs><path class="cls-1" d="m90.51,246.81h34.61v2.89h-34.61v-2.89Zm10.67-86.04c-3.87-.88-7.5-2.38-10.83-4.47l-5.79,5.79-11.1-11.1,5.79-5.8c-2.09-3.33-3.59-6.96-4.47-10.82h-8.21v-15.7h8.21c.88-3.86,2.38-7.49,4.47-10.82l-5.79-5.79,11.1-11.11,5.79,5.79c3.33-2.09,6.96-3.59,10.83-4.47v-8.21h15.69v8.21c3.87.88,7.5,2.38,10.83,4.47l5.79-5.79,11.1,11.11-5.79,5.79c2.09,3.32,3.59,6.96,4.47,10.82h8.21v15.7h-8.21c-.88,3.86-2.38,7.5-4.47,10.83l5.79,5.79-11.1,11.1-5.79-5.79c-3.33,2.09-6.96,3.59-10.83,4.47v8.21h-15.69v-8.21Zm1.72-2.59l1.17.23v7.68h9.91v-7.68l1.17-.23c4.31-.83,8.33-2.49,11.93-4.93l.99-.67,5.42,5.43,7.01-7.01-5.42-5.42.67-.99c2.44-3.6,4.1-7.61,4.92-11.93l.23-1.17h7.68v-9.91h-7.68l-.23-1.17c-.82-4.31-2.48-8.33-4.92-11.92l-.67-.99,5.42-5.42-7.01-7.02-5.42,5.42-.99-.67c-3.6-2.44-7.62-4.1-11.93-4.93l-1.17-.23v-7.68h-9.91v7.68l-1.17.23c-4.31.83-8.33,2.49-11.93,4.93l-.99.67-5.43-5.42-7.01,7.02,5.42,5.42-.67.99c-2.44,3.6-4.1,7.62-4.92,11.92l-.23,1.17h-7.68v9.91h7.68l.23,1.17c.82,4.31,2.48,8.32,4.92,11.93l.67.99-5.42,5.42,7.01,7.01,5.43-5.43.99.67c3.6,2.44,7.62,4.09,11.93,4.93Zm6.13-6.64c-13.79,0-25.01-11.22-25.01-25.01s11.22-25.02,25.01-25.02,25.01,11.22,25.01,25.02-11.22,25.01-25.01,25.01Zm0-2.89c12.2,0,22.12-9.93,22.12-22.12s-9.92-22.13-22.12-22.13-22.12,9.93-22.12,22.13,9.92,22.12,22.12,22.12Zm72.86,18.72h37.56v63.33h-7.56v17.85l-16.18-17.85h-13.82v14.91c0,10.33-8.4,18.73-18.72,18.73H53.33c-10.33,0-18.73-8.4-18.73-18.73V87.44h-9.87l-16.18,17.85v-17.85H1V24.1h33.6v-5.37C34.6,8.4,43.01,0,53.33,0h109.83c10.32,0,18.72,8.4,18.72,18.73v148.65ZM34.6,84.55h57.68V26.99H3.89v57.56h7.56v13.25l12-13.25h11.15Zm144.4,146.17h-53.73v-63.33h53.73V18.73c0-8.73-7.11-15.84-15.83-15.84H53.33c-8.73,0-15.84,7.11-15.84,15.84v5.37h57.68v63.34h-57.68v158.18c0,8.73,7.11,15.83,15.84,15.83h109.83c8.73,0,15.83-7.1,15.83-15.83v-14.91Zm2.89-60.44h-53.73v57.55h68.83l12.01,13.25v-13.25h7.56v-57.55h-34.67Z"/></svg>