<?xml version="1.0" encoding="UTF-8"?><svg id="Vrstva_1" xmlns="http://www.w3.org/2000/svg" viewBox="0 0 320.6 319.56"><defs><style>.cls-1{stroke-width:0px;}</style></defs><path class="cls-1" d="m88.41,303.61l42.65,15.84,1.39.1,42.92-15.95c4.07-1.51,8.02-3.23,11.87-5.1,13.69,8.86,30.08,14.03,47.69,14.03,47.79,0,86.68-38.04,86.68-84.8,0-37.23-24.67-68.92-58.84-80.29V52.82h-1.57c-48.03,0-93.19-18.3-127.16-51.53l-1.32-1.29-.83.82-.84-.82-1.32,1.29C95.76,34.52,50.6,52.82,2.57,52.82h-1.57v126.86c0,54.71,35.12,104.52,87.41,123.94Zm174.35-152.91c32.41,11.25,55.7,41.53,55.7,77.05,0,45.07-37.48,81.73-83.54,81.73-16.33,0-31.57-4.62-44.45-12.58-1.01-.62-2.01-1.27-3-1.93-4.42-2.99-8.53-6.39-12.27-10.14-.79-.79-1.57-1.59-2.33-2.42-13.35-14.49-21.5-33.66-21.5-54.66,0-45.07,37.48-81.73,83.54-81.73,2.33,0,4.63.12,6.91.3,1.05.09,2.09.19,3.14.31,5.03.6,9.93,1.61,14.65,3.04,1.06.32,2.1.67,3.14,1.03Zm-92.92,132.97c-.64.25-1.26.56-1.91.8l-36.04,13.39-36.05-13.39c-44.21-16.43-73.91-58.54-73.91-104.8v-107.28c40.72-3.79,78.69-19.41,109.96-45.26,31.27,25.84,69.23,41.47,109.95,45.26v70.85c-2.29-.18-4.59-.29-6.91-.29-47.8,0-86.68,38.04-86.68,84.8,0,21.42,8.17,40.98,21.6,55.92ZM4.14,55.88c48.25-.4,93.56-18.95,127.74-52.36,34.18,33.41,79.49,51.96,127.74,52.36v90.6c-4.73-1.38-9.62-2.37-14.65-2.94v-73.95l-1.43-.12c-41.06-3.53-79.32-19.27-110.65-45.5l-1.02-.85-1.02.85c-31.33,26.23-69.59,41.97-110.64,45.5l-1.43.12v110.09c0,47.53,30.51,90.79,75.93,107.67l37.16,13.8,37.16-13.8c1.04-.38,2.07-.8,3.09-1.22,3.71,3.82,7.78,7.3,12.15,10.39-3.27,1.53-6.62,2.95-10.05,4.22l-42.36,15.74-42.36-15.74C38.45,281.77,4.14,233.12,4.14,179.68V55.88Zm237.69,102.85c-2.28-.22-4.58-.34-6.91-.34-39.09,0-70.89,31.11-70.89,69.36,0,19.05,7.89,36.32,20.64,48.86.77.76,1.56,1.5,2.37,2.22,3.88,3.47,8.15,6.52,12.74,9.1,1.03.58,2.08,1.13,3.14,1.66,9.62,4.79,20.49,7.5,32.01,7.5,39.09,0,70.89-31.11,70.89-69.35,0-28.58-17.76-53.17-43.05-63.78-1.03-.43-2.08-.84-3.14-1.23-4.67-1.7-9.57-2.93-14.65-3.64-1.04-.14-2.09-.28-3.14-.37Zm20.93,8.41c23.61,10.42,40.1,33.66,40.1,60.61,0,36.65-30.48,66.46-67.94,66.46-10.48,0-20.41-2.33-29.28-6.5-1.06-.5-2.12-1.02-3.15-1.58-4.63-2.47-8.92-5.45-12.82-8.87-.82-.73-1.64-1.47-2.42-2.23-12.5-12.06-20.27-28.81-20.27-47.3,0-36.65,30.48-66.46,67.94-66.46,2.33,0,4.64.11,6.91.34,1.05.1,2.1.24,3.14.39,5.09.74,9.99,2.05,14.65,3.84,1.06.4,2.1.83,3.14,1.29Zm-34.16,84.06l41.03-42.53,2.76,2.66-43.78,45.38-28.33-29.21,2.76-2.67,25.57,26.36Z"/></svg>