<?xml version="1.0" encoding="UTF-8"?><svg id="Vrstva_1" xmlns="http://www.w3.org/2000/svg" viewBox="0 0 249.65 227.26"><defs><style>.cls-1{stroke-width:0px;}</style></defs><path class="cls-1" d="m1.62,88.03l-.62.8v9.01h60.82v-16.26H27.58l24.66-31.9c5.46-7.13,7.89-13.77,7.89-21.54s-2.11-14.3-6.45-19.22C48.47,3.08,40.89,0,31.73,0,16.36,0,3.99,11.45,2.95,26.64l-.18,2.6,2.56.48,10.91,2.08,3.15.6.32-3.19c.81-8.1,5.3-12.95,12.02-12.95,3.89,0,6.72,1.11,8.68,3.39,1.79,2.11,2.67,4.89,2.67,8.48,0,4.53-1.02,8-6.79,15.48L1.62,88.03Zm44.05-55.82c.25-1.3.35-2.64.35-4.07,0-2.21-.29-4.16-.86-5.88-.57-1.72-1.41-3.22-2.52-4.52-.58-.68-1.24-1.3-1.98-1.84-1.47-1.08-3.26-1.87-5.42-2.27-1.08-.2-2.25-.31-3.51-.31-8.7,0-14.03,6.49-14.94,15.58l-10.91-2.08c.34-5.02,2.07-9.63,4.85-13.44.58-.79,1.2-1.55,1.87-2.27C17.26,6.09,23.99,2.94,31.73,2.94c3.36,0,6.38.44,9.06,1.24,1.78.54,3.42,1.23,4.92,2.07,2.24,1.25,4.16,2.82,5.76,4.62,2.92,3.31,4.68,7.36,5.37,12.18.23,1.61.34,3.31.34,5.1,0,1.91-.16,3.72-.48,5.46-.32,1.73-.79,3.39-1.4,4.99-1.24,3.22-3.06,6.23-5.39,9.29l-28.31,36.63h37.28v10.39H3.94v-5.07l34.68-44.42c4.29-5.55,6.31-9.28,7.05-13.21Zm56.68-11.08l-24.68,44.03h24.68V21.12Zm-2.94,41.1h-16.74l16.74-29.86v29.86Zm0,35.61h17.04v-19.35h11.3v-16.26h-11.3V1.04h-16.85l-.85,1.47-38.44,67.02-.39.68v8.27h39.49v19.35Zm-36.55-22.29v-4.55L101.31,3.98h12.21v61.18h11.3v10.39h-11.3v19.35h-11.17v-19.35h-39.48Zm116.67,54.75h-2.94v16.26h36.99l-31.7,76.48-1.68,4.06h17.79l.75-1.82,35.33-86.12.22-.54v-8.32h-54.76Zm51.83,7.74l-35.33,86.11h-11.43l33.38-80.53h-38.45v-10.39h51.83v4.8ZM227.66,1.53h-1.34l-.88,1.01L34.94,222.4l-4.21,4.86h24.33l.88-1.01L246.45,6.39l4.2-4.86h-22.99ZM53.72,224.33h-16.56L227.66,4.47h16.56L53.72,224.33Z"/></svg>